%TF.GenerationSoftware,Altium Limited,Altium Designer,25.8.1 (18)*%
G04 Layer_Color=16711935*
%FSLAX45Y45*%
%MOMM*%
%TF.SameCoordinates,DFAA6066-2C62-496B-BB9A-86AEB07E6F94*%
%TF.FilePolarity,Positive*%
%TF.FileFunction,Other,Mechanical_1*%
%TF.Part,Single*%
G01*
G75*
%TA.AperFunction,NonConductor*%
%ADD21C,0.25400*%
%ADD29C,0.00100*%
D21*
X10229600Y7600500D02*
X11423400D01*
X10229600Y7105200D02*
Y7600500D01*
Y7105200D02*
X11423400D01*
Y7600500D01*
X9728200Y10515600D02*
Y11252200D01*
Y10515600D02*
X10134600D01*
Y11252200D01*
X9728200D02*
X10134600D01*
D29*
X9687500Y7076250D02*
Y7338750D01*
X7787500Y7076250D02*
X9687500D01*
X7787500D02*
Y7338750D01*
X9687500D01*
X9625823Y9729900D02*
X9674122Y9720292D01*
X9719619Y9701447D01*
X9760566Y9674088D01*
X9795388Y9639266D01*
X9822747Y9598319D01*
X9841592Y9552822D01*
X9851200Y9504523D01*
Y9479900D02*
Y9504523D01*
Y9455277D02*
Y9479900D01*
X9841592Y9406978D02*
X9851200Y9455277D01*
X9822747Y9361480D02*
X9841592Y9406978D01*
X9795388Y9320534D02*
X9822747Y9361480D01*
X9760566Y9285712D02*
X9795388Y9320534D01*
X9719619Y9258353D02*
X9760566Y9285712D01*
X9674122Y9239507D02*
X9719619Y9258353D01*
X9625823Y9229900D02*
X9674122Y9239507D01*
X9576577Y9229900D02*
X9625823D01*
X9528278Y9239507D02*
X9576577Y9229900D01*
X9482780Y9258353D02*
X9528278Y9239507D01*
X9441834Y9285712D02*
X9482780Y9258353D01*
X9407012Y9320534D02*
X9441834Y9285712D01*
X9379653Y9361480D02*
X9407012Y9320534D01*
X9360807Y9406978D02*
X9379653Y9361480D01*
X9351200Y9455277D02*
X9360807Y9406978D01*
X9351200Y9455277D02*
Y9479900D01*
Y9504523D01*
X9360807Y9552822D01*
X9379653Y9598319D01*
X9407012Y9639266D01*
X9441834Y9674088D01*
X9482780Y9701447D01*
X9528278Y9720292D01*
X9576577Y9729900D01*
X9625823D01*
Y12537900D02*
X9674122Y12528292D01*
X9719619Y12509447D01*
X9760566Y12482088D01*
X9795388Y12447266D01*
X9822747Y12406319D01*
X9841592Y12360822D01*
X9851200Y12312523D01*
Y12287900D02*
Y12312523D01*
Y12263277D02*
Y12287900D01*
X9841592Y12214978D02*
X9851200Y12263277D01*
X9822747Y12169480D02*
X9841592Y12214978D01*
X9795388Y12128534D02*
X9822747Y12169480D01*
X9760566Y12093712D02*
X9795388Y12128534D01*
X9719619Y12066353D02*
X9760566Y12093712D01*
X9674122Y12047507D02*
X9719619Y12066353D01*
X9625823Y12037900D02*
X9674122Y12047507D01*
X9576577Y12037900D02*
X9625823D01*
X9528278Y12047507D02*
X9576577Y12037900D01*
X9482780Y12066353D02*
X9528278Y12047507D01*
X9441834Y12093712D02*
X9482780Y12066353D01*
X9407012Y12128534D02*
X9441834Y12093712D01*
X9379653Y12169480D02*
X9407012Y12128534D01*
X9360807Y12214978D02*
X9379653Y12169480D01*
X9351200Y12263277D02*
X9360807Y12214978D01*
X9351200Y12263277D02*
Y12287900D01*
Y12312523D01*
X9360807Y12360822D01*
X9379653Y12406319D01*
X9407012Y12447266D01*
X9441834Y12482088D01*
X9482780Y12509447D01*
X9528278Y12528292D01*
X9576577Y12537900D01*
X9625823D01*
X13970000Y5334000D02*
Y13107500D01*
X4870000Y13470000D02*
X13980000D01*
X4860000Y5334000D02*
Y13107500D01*
Y5334000D02*
X13970000D01*
X9687500Y7076250D02*
Y7338750D01*
X7787500Y7076250D02*
X9687500D01*
X7787500D02*
Y7338750D01*
X9687500D01*
X9625823Y9729900D02*
X9674122Y9720292D01*
X9719619Y9701447D01*
X9760566Y9674088D01*
X9795388Y9639266D01*
X9822747Y9598319D01*
X9841592Y9552822D01*
X9851200Y9504523D01*
Y9479900D02*
Y9504523D01*
Y9455277D02*
Y9479900D01*
X9841592Y9406978D02*
X9851200Y9455277D01*
X9822747Y9361480D02*
X9841592Y9406978D01*
X9795388Y9320534D02*
X9822747Y9361480D01*
X9760566Y9285712D02*
X9795388Y9320534D01*
X9719619Y9258353D02*
X9760566Y9285712D01*
X9674122Y9239507D02*
X9719619Y9258353D01*
X9625823Y9229900D02*
X9674122Y9239507D01*
X9576577Y9229900D02*
X9625823D01*
X9528278Y9239507D02*
X9576577Y9229900D01*
X9482780Y9258353D02*
X9528278Y9239507D01*
X9441834Y9285712D02*
X9482780Y9258353D01*
X9407012Y9320534D02*
X9441834Y9285712D01*
X9379653Y9361480D02*
X9407012Y9320534D01*
X9360807Y9406978D02*
X9379653Y9361480D01*
X9351200Y9455277D02*
X9360807Y9406978D01*
X9351200Y9455277D02*
Y9479900D01*
Y9504523D01*
X9360807Y9552822D01*
X9379653Y9598319D01*
X9407012Y9639266D01*
X9441834Y9674088D01*
X9482780Y9701447D01*
X9528278Y9720292D01*
X9576577Y9729900D01*
X9625823D01*
Y12537900D02*
X9674122Y12528292D01*
X9719619Y12509447D01*
X9760566Y12482088D01*
X9795388Y12447266D01*
X9822747Y12406319D01*
X9841592Y12360822D01*
X9851200Y12312523D01*
Y12287900D02*
Y12312523D01*
Y12263277D02*
Y12287900D01*
X9841592Y12214978D02*
X9851200Y12263277D01*
X9822747Y12169480D02*
X9841592Y12214978D01*
X9795388Y12128534D02*
X9822747Y12169480D01*
X9760566Y12093712D02*
X9795388Y12128534D01*
X9719619Y12066353D02*
X9760566Y12093712D01*
X9674122Y12047507D02*
X9719619Y12066353D01*
X9625823Y12037900D02*
X9674122Y12047507D01*
X9576577Y12037900D02*
X9625823D01*
X9528278Y12047507D02*
X9576577Y12037900D01*
X9482780Y12066353D02*
X9528278Y12047507D01*
X9441834Y12093712D02*
X9482780Y12066353D01*
X9407012Y12128534D02*
X9441834Y12093712D01*
X9379653Y12169480D02*
X9407012Y12128534D01*
X9360807Y12214978D02*
X9379653Y12169480D01*
X9351200Y12263277D02*
X9360807Y12214978D01*
X9351200Y12263277D02*
Y12287900D01*
Y12312523D01*
X9360807Y12360822D01*
X9379653Y12406319D01*
X9407012Y12447266D01*
X9441834Y12482088D01*
X9482780Y12509447D01*
X9528278Y12528292D01*
X9576577Y12537900D01*
X9625823D01*
X13970000Y5334000D02*
Y13107500D01*
X4870000Y13470000D02*
X13980000D01*
X4860000Y5334000D02*
Y13107500D01*
Y5334000D02*
X13970000D01*
X9687500Y7076250D02*
Y7338750D01*
X7787500Y7076250D02*
X9687500D01*
X7787500D02*
Y7338750D01*
X9687500D01*
X9625823Y9729900D02*
X9674122Y9720292D01*
X9719619Y9701447D01*
X9760566Y9674088D01*
X9795388Y9639266D01*
X9822747Y9598319D01*
X9841592Y9552822D01*
X9851200Y9504523D01*
Y9479900D02*
Y9504523D01*
Y9455277D02*
Y9479900D01*
X9841592Y9406978D02*
X9851200Y9455277D01*
X9822747Y9361480D02*
X9841592Y9406978D01*
X9795388Y9320534D02*
X9822747Y9361480D01*
X9760566Y9285712D02*
X9795388Y9320534D01*
X9719619Y9258353D02*
X9760566Y9285712D01*
X9674122Y9239507D02*
X9719619Y9258353D01*
X9625823Y9229900D02*
X9674122Y9239507D01*
X9576577Y9229900D02*
X9625823D01*
X9528278Y9239507D02*
X9576577Y9229900D01*
X9482780Y9258353D02*
X9528278Y9239507D01*
X9441834Y9285712D02*
X9482780Y9258353D01*
X9407012Y9320534D02*
X9441834Y9285712D01*
X9379653Y9361480D02*
X9407012Y9320534D01*
X9360807Y9406978D02*
X9379653Y9361480D01*
X9351200Y9455277D02*
X9360807Y9406978D01*
X9351200Y9455277D02*
Y9479900D01*
Y9504523D01*
X9360807Y9552822D01*
X9379653Y9598319D01*
X9407012Y9639266D01*
X9441834Y9674088D01*
X9482780Y9701447D01*
X9528278Y9720292D01*
X9576577Y9729900D01*
X9625823D01*
Y12537900D02*
X9674122Y12528292D01*
X9719619Y12509447D01*
X9760566Y12482088D01*
X9795388Y12447266D01*
X9822747Y12406319D01*
X9841592Y12360822D01*
X9851200Y12312523D01*
Y12287900D02*
Y12312523D01*
Y12263277D02*
Y12287900D01*
X9841592Y12214978D02*
X9851200Y12263277D01*
X9822747Y12169480D02*
X9841592Y12214978D01*
X9795388Y12128534D02*
X9822747Y12169480D01*
X9760566Y12093712D02*
X9795388Y12128534D01*
X9719619Y12066353D02*
X9760566Y12093712D01*
X9674122Y12047507D02*
X9719619Y12066353D01*
X9625823Y12037900D02*
X9674122Y12047507D01*
X9576577Y12037900D02*
X9625823D01*
X9528278Y12047507D02*
X9576577Y12037900D01*
X9482780Y12066353D02*
X9528278Y12047507D01*
X9441834Y12093712D02*
X9482780Y12066353D01*
X9407012Y12128534D02*
X9441834Y12093712D01*
X9379653Y12169480D02*
X9407012Y12128534D01*
X9360807Y12214978D02*
X9379653Y12169480D01*
X9351200Y12263277D02*
X9360807Y12214978D01*
X9351200Y12263277D02*
Y12287900D01*
Y12312523D01*
X9360807Y12360822D01*
X9379653Y12406319D01*
X9407012Y12447266D01*
X9441834Y12482088D01*
X9482780Y12509447D01*
X9528278Y12528292D01*
X9576577Y12537900D01*
X9625823D01*
X13970000Y5334000D02*
Y13107500D01*
X4870000Y13470000D02*
X13980000D01*
X4860000Y5334000D02*
Y13107500D01*
Y5334000D02*
X13970000D01*
%TF.MD5,4e9e0c62e049f8c5cdbb088d35b1722c*%
M02*
