M48
;Layer_Color=9474304
;FILE_FORMAT=4:4
METRIC
;TYPE=PLATED
T01F00S00C0.7112
T02F00S00C1.0000
T03F00S00C1.1000
T04F00S00C1.3000
%
T01
X00659500Y00625590
X00681250Y00685000
X00708750Y00685250
X00703660Y00735000
X00677250Y00736000
X00680500Y00789250
X00707500Y00787500
X00719500Y00835500
X00679000Y00836250
X00659750Y00868000
X00683000Y00885500
X00716750Y00887250
X00723500Y00965000
X00724500Y01007000
X00789250Y00870750
X00868250Y00874750
X01077250Y00875250
X01105500Y00890250
X01102250Y00846750
X01118210Y00805180
X01063000Y00804500
X01013500Y00804250
X01177489Y00879911
X01209750Y00877750
X01240000Y00854500
X01242060Y00825500
X01202750Y00805000
X01231900Y01082040
X01229360Y01131570
T02
X01031850Y00772750
X01057250
X01082650
X01108050
X01133450
X00960120Y01062990
Y01088390
Y01113790
T03
X01270210Y00613410
Y00638810
Y00664210
Y00689610
Y00715010
Y00740410
Y00765810
Y00791210
X01295610
Y00765810
Y00740410
Y00715010
Y00689610
Y00664210
Y00638810
Y00613410
Y00816610
Y00842010
Y00867410
Y00892810
Y00918210
Y00943610
Y00969010
Y00994410
Y01019810
Y01045210
Y01070610
Y01096010
X01270210
Y01070610
Y01045210
Y01019810
Y00994410
Y00969010
Y00943610
Y00918210
Y00892810
Y00867410
Y00842010
Y00816610
T04
X00571500Y00597750
Y00647750
Y00697750
Y00747750
Y00797750
Y00847750
Y00897750
Y00947750
Y00997750
Y01047750
M30
