%TF.GenerationSoftware,Altium Limited,Altium Designer,25.8.1 (18)*%
G04 Layer_Physical_Order=1*
G04 Layer_Color=255*
%FSLAX45Y45*%
%MOMM*%
%TF.SameCoordinates,DFAA6066-2C62-496B-BB9A-86AEB07E6F94*%
%TF.FilePolarity,Positive*%
%TF.FileFunction,Copper,L1,Top,Signal*%
%TF.Part,Single*%
G01*
G75*
%TA.AperFunction,NonConductor*%
%ADD10C,0.00000*%
%TA.AperFunction,Conductor*%
%ADD11C,0.25400*%
%TA.AperFunction,ComponentPad*%
%ADD12R,1.65000X1.65000*%
%ADD13C,1.65000*%
%ADD14C,1.95000*%
%ADD15C,1.80000*%
%ADD16R,1.95000X1.95000*%
%ADD17C,2.00000*%
%TA.AperFunction,ViaPad*%
%ADD18C,1.27000*%
D10*
X9851200Y9479900D02*
G03*
X9851200Y9479900I-250000J0D01*
G01*
Y12287900D02*
G03*
X9851200Y12287900I-250000J0D01*
G01*
D11*
X8677500Y9222379D02*
X8979879Y8920000D01*
X8677500Y9222379D02*
Y10342500D01*
X12035000Y13114999D02*
X12293600Y12856400D01*
X7882379Y13114999D02*
X12035000D01*
X7226300Y12458921D02*
X7882379Y13114999D01*
X5875000Y12115000D02*
X7060000Y13300000D01*
X12470000D02*
X12822501Y12947501D01*
X7060000Y13300000D02*
X12470000D01*
X12822501Y11080500D02*
Y12947501D01*
X12293600Y11315700D02*
Y12856400D01*
X12702100Y10960100D02*
X12822501Y11080500D01*
X12280900Y10960100D02*
X12702100D01*
X5875000Y10637500D02*
Y12115000D01*
X11887500Y9055000D02*
X12020000Y9187500D01*
X8978900Y9203600D02*
X9127500Y9055000D01*
X11887500D01*
X8312900Y11137900D02*
X9601200D01*
X7245000Y10070000D02*
X8312900Y11137900D01*
X5715000Y5977500D02*
X6567500D01*
X7087500Y6852500D02*
X7845000Y6095000D01*
X11665000D02*
X12493328Y6923328D01*
X7845000Y6095000D02*
X11665000D01*
X7967500Y6415000D02*
X11685000D01*
X12540700Y7270700D01*
X7036600Y7345900D02*
X7967500Y6415000D01*
X5865000Y6477500D02*
X5985000Y6357500D01*
X5715000Y6477500D02*
X5865000D01*
X6705000Y6357500D02*
X6935000Y6587500D01*
X6595000Y6255900D02*
X6602500Y6248400D01*
X5985000Y6357500D02*
X6705000D01*
X6602500Y6012500D02*
Y6248400D01*
X5822500Y9870000D02*
X8382500D01*
X5715000Y9977500D02*
X5822500Y9870000D01*
X8382500D02*
X8435000Y9817501D01*
X12877800Y10290354D02*
Y10373800D01*
X12956100Y10452100D01*
X12822701Y9810700D02*
X12956100Y9944100D01*
X12822701Y8794700D02*
X12956100Y8928100D01*
X12649700Y8794700D02*
X12822701D01*
X12400000Y8545000D02*
X12649700Y8794700D01*
X12956100Y10960100D02*
X13570000Y10346200D01*
Y7860000D02*
Y10346200D01*
X13239999Y7530000D02*
X13570000Y7860000D01*
X10516000Y7530000D02*
X13239999D01*
X10318500Y7727500D02*
X10516000Y7530000D01*
X12827000Y10577000D02*
X12956100Y10706100D01*
X12805821Y10331500D02*
X12827000Y10352679D01*
Y10577000D01*
X12321179Y10331500D02*
X12805821D01*
X12306300Y10316621D02*
X12321179Y10331500D01*
X12306300Y10045700D02*
Y10316621D01*
X12125000Y9864400D02*
X12306300Y10045700D01*
X11055000Y8902500D02*
X11905000D01*
X12125000Y9122500D01*
Y9864400D01*
X7887800Y8712200D02*
X7892500Y8707500D01*
X7374700Y8712200D02*
X7887800D01*
X8682500Y8747500D02*
X8687500Y8742500D01*
X10762500D02*
X10772500Y8752500D01*
X7195000Y8355000D02*
Y8532500D01*
X7374700Y8712200D01*
X5715000Y8477500D02*
X5835900Y8356600D01*
X6784100D02*
X6790000Y8362500D01*
X5835900Y8356600D02*
X6784100D01*
X10907500Y8582500D02*
X11022500Y8467500D01*
X9675000Y8742500D02*
X10762500D01*
X9835000Y8582500D02*
X10907500D01*
X8687500Y8742500D02*
X9675000D01*
X9835000Y8582500D01*
X12433300Y10452100D02*
X12702100D01*
X12319000Y10566400D02*
X12433300Y10452100D01*
X12319000Y10566400D02*
Y10820400D01*
X5715000Y9477500D02*
X6754500D01*
X6884800Y9347200D01*
X6935000D01*
Y6587500D02*
Y9347200D01*
X7235000Y9647200D01*
Y9650000D01*
X7226300Y10088700D02*
Y12458921D01*
Y10088700D02*
X7245000Y10070000D01*
X11244506Y8418627D02*
X12468343D01*
X12469815Y8420100D02*
X12702100D01*
X11163378Y8337500D02*
X11244506Y8418627D01*
X12468343D02*
X12469815Y8420100D01*
X8435000Y8550000D02*
Y9817501D01*
Y8550000D02*
X8485000Y8500000D01*
X9592500D01*
X9755000Y8337500D01*
X11163378D01*
X11152720Y8255000D02*
X12420600D01*
X5715000Y8977500D02*
X5840000Y8852500D01*
X7972500Y8872500D02*
X8552500Y8292500D01*
X7167500Y8872500D02*
X7972500D01*
X11063820Y8166100D02*
X11152720Y8255000D01*
X6827500Y8852500D02*
X6830000Y8855000D01*
X5840000Y8852500D02*
X6600000D01*
X6827500D01*
X6567500Y5977500D02*
X6602500Y6012500D01*
X6597500Y8680000D02*
Y8850000D01*
X6600000Y8852500D01*
X9641400Y8166100D02*
X11063820D01*
X9515000Y8292500D02*
X9641400Y8166100D01*
X8552500Y8292500D02*
X9515000D01*
X12822701Y7270700D02*
X12956100Y7404100D01*
X5715000Y7477500D02*
X5835000Y7357500D01*
X7036600Y7345900D02*
Y7350000D01*
X5835000Y7357500D02*
X6770000D01*
X6772500Y7360000D01*
X12540700Y7270700D02*
X12822701D01*
X12020000Y10699200D02*
X12280900Y10960100D01*
X12020000Y9187500D02*
Y10699200D01*
X9252400Y10629900D02*
X9601200D01*
X8978900Y10356400D02*
X9252400Y10629900D01*
X8978900Y9203600D02*
Y10356400D01*
X5715000Y10477500D02*
X5875000Y10637500D01*
X5715000Y7977500D02*
X5818500Y7874000D01*
X6175003D01*
X12284900Y9910000D02*
X12447500D01*
X12242800Y9867900D02*
X12284900Y9910000D01*
X12834322Y10246875D02*
X12877800Y10290354D01*
X12834322Y10092355D02*
Y10246875D01*
X12447500Y9910000D02*
X12614976Y10077476D01*
X12819443D01*
X12834322Y10092355D01*
X11949108Y8799108D02*
X12242800Y9092800D01*
Y9867900D01*
X11774892Y8799108D02*
X11949108D01*
X6175003Y7874000D02*
X6198504Y7897500D01*
X6800000D02*
X6805000Y7892500D01*
X6198504Y7897500D02*
X6800000D01*
X10826500Y7727500D02*
X10837000Y7738000D01*
X10633400Y8012478D02*
X10636154Y7908063D01*
X11178700Y8048400D02*
X11182100Y8051800D01*
X10633400Y8048400D02*
X11178700D01*
X10636154Y7908063D02*
X10826500Y7727500D01*
X10633400Y8045000D02*
X10633400Y8012478D01*
X10633400Y8045000D02*
Y8048400D01*
X7215000Y8015000D02*
X10080007D01*
X10107507Y8042500D02*
X10135000D01*
X7075000Y7875000D02*
X7215000Y8015000D01*
X10080007D02*
X10107507Y8042500D01*
X5715000Y6977500D02*
X5842500Y6850000D01*
X6812500D01*
X12822701Y7016700D02*
X12956100Y7150100D01*
X12689741Y7016700D02*
X12822701D01*
X12493328Y6923328D02*
Y6923329D01*
X12586699Y7016700D02*
X12689741D01*
X12493328Y6923329D02*
X12586699Y7016700D01*
X11490000Y7727500D02*
X11877500D01*
X12027500Y7877500D02*
Y8050000D01*
X11877500Y7727500D02*
X12027500Y7877500D01*
X11281199Y7780801D02*
X11334500Y7727500D01*
X11490000D01*
Y7662500D02*
Y7727500D01*
X11426900Y7599400D02*
X11490000Y7662500D01*
X10700600Y7599400D02*
X11426900D01*
X10572500Y7727500D02*
X10700600Y7599400D01*
X8979879Y8920000D02*
X10842500D01*
X8677500Y10342500D02*
X9218900Y10883900D01*
X9601200D01*
X11147916Y8614584D02*
X12232084D01*
X10842500Y8920000D02*
X11147916Y8614584D01*
X12097500Y8777500D02*
X12206500D01*
X12357100Y8928100D01*
X12545600D02*
X12702100D01*
X12232084Y8614584D02*
X12545600Y8928100D01*
X12357100D02*
Y9795821D01*
X12371979Y9810700D02*
X12822701D01*
X12357100Y9795821D02*
X12371979Y9810700D01*
D12*
X12956100Y10960100D02*
D03*
D13*
X12702100D02*
D03*
X12956100Y10706100D02*
D03*
X12702100D02*
D03*
X12956100Y10452100D02*
D03*
X12702100D02*
D03*
X12956100Y10198100D02*
D03*
X12702100D02*
D03*
X12956100Y9944100D02*
D03*
X12702100D02*
D03*
X12956100Y9690100D02*
D03*
X12702100D02*
D03*
X12956100Y9436100D02*
D03*
X12702100D02*
D03*
X12956100Y9182100D02*
D03*
X12702100D02*
D03*
X12956100Y8928100D02*
D03*
X12702100D02*
D03*
X12956100Y8674100D02*
D03*
X12702100D02*
D03*
X12956100Y8420100D02*
D03*
X12702100D02*
D03*
X12956100Y8166100D02*
D03*
X12702100D02*
D03*
X12956100Y7912100D02*
D03*
X12702100D02*
D03*
X12956100Y7658100D02*
D03*
X12702100D02*
D03*
X12956100Y7404100D02*
D03*
X12702100D02*
D03*
X12956100Y7150100D02*
D03*
X12702100D02*
D03*
X12956100Y6896100D02*
D03*
X12702100D02*
D03*
X12956100Y6642100D02*
D03*
X12702100D02*
D03*
X12956100Y6388100D02*
D03*
X12702100D02*
D03*
X12956100Y6134100D02*
D03*
X12702100D02*
D03*
D14*
X5715000Y8477500D02*
D03*
Y6477500D02*
D03*
Y9477500D02*
D03*
Y9977500D02*
D03*
Y5977500D02*
D03*
Y8977500D02*
D03*
Y7477500D02*
D03*
Y7977500D02*
D03*
Y6977500D02*
D03*
D15*
X11080500Y7727500D02*
D03*
X10318500D02*
D03*
X10826500D02*
D03*
X11334500D02*
D03*
X10572500D02*
D03*
D16*
X5715000Y10477500D02*
D03*
D17*
X9601200Y10629900D02*
D03*
Y10883900D02*
D03*
Y11137900D02*
D03*
D18*
X6595000Y6255900D02*
D03*
X11055000Y8902500D02*
D03*
X7892500Y8707500D02*
D03*
X8682500Y8747500D02*
D03*
X10772500Y8752500D02*
D03*
X7195000Y8355000D02*
D03*
X6790000Y8362500D02*
D03*
X11022500Y8467500D02*
D03*
X12319000Y10820400D02*
D03*
X12293600Y11315700D02*
D03*
X7235000Y9650000D02*
D03*
X7245000Y10070000D02*
D03*
X12420600Y8255000D02*
D03*
X7167500Y8872500D02*
D03*
X12400000Y8545000D02*
D03*
X6830000Y8855000D02*
D03*
X6597500Y8680000D02*
D03*
X7036600Y7350000D02*
D03*
X6772500Y7360000D02*
D03*
X7075000Y7875000D02*
D03*
X11774892Y8799108D02*
D03*
X6805000Y7892500D02*
D03*
X10630000Y8045000D02*
D03*
X11182100Y8051800D02*
D03*
X10135000Y8042500D02*
D03*
X7087500Y6852500D02*
D03*
X6812500Y6850000D02*
D03*
X12027500Y8050000D02*
D03*
X12097500Y8777500D02*
D03*
%TF.MD5,f77b1d4d2faceeb8de0574460dae79da*%
M02*
