%TF.GenerationSoftware,Altium Limited,Altium Designer,25.8.1 (18)*%
G04 Layer_Color=8388736*
%FSLAX45Y45*%
%MOMM*%
%TF.SameCoordinates,DFAA6066-2C62-496B-BB9A-86AEB07E6F94*%
%TF.FilePolarity,Negative*%
%TF.FileFunction,Soldermask,Top*%
%TF.Part,Single*%
G01*
G75*
%TA.AperFunction,ComponentPad*%
%ADD22R,1.85320X1.85320*%
%ADD23C,1.85320*%
%ADD24C,2.15320*%
%ADD25C,2.00320*%
%ADD26R,2.15320X2.15320*%
%ADD27C,2.20320*%
%TA.AperFunction,ViaPad*%
%ADD28C,1.47320*%
D22*
X12956100Y10960100D02*
D03*
D23*
X12702100D02*
D03*
X12956100Y10706100D02*
D03*
X12702100D02*
D03*
X12956100Y10452100D02*
D03*
X12702100D02*
D03*
X12956100Y10198100D02*
D03*
X12702100D02*
D03*
X12956100Y9944100D02*
D03*
X12702100D02*
D03*
X12956100Y9690100D02*
D03*
X12702100D02*
D03*
X12956100Y9436100D02*
D03*
X12702100D02*
D03*
X12956100Y9182100D02*
D03*
X12702100D02*
D03*
X12956100Y8928100D02*
D03*
X12702100D02*
D03*
X12956100Y8674100D02*
D03*
X12702100D02*
D03*
X12956100Y8420100D02*
D03*
X12702100D02*
D03*
X12956100Y8166100D02*
D03*
X12702100D02*
D03*
X12956100Y7912100D02*
D03*
X12702100D02*
D03*
X12956100Y7658100D02*
D03*
X12702100D02*
D03*
X12956100Y7404100D02*
D03*
X12702100D02*
D03*
X12956100Y7150100D02*
D03*
X12702100D02*
D03*
X12956100Y6896100D02*
D03*
X12702100D02*
D03*
X12956100Y6642100D02*
D03*
X12702100D02*
D03*
X12956100Y6388100D02*
D03*
X12702100D02*
D03*
X12956100Y6134100D02*
D03*
X12702100D02*
D03*
D24*
X5715000Y8477500D02*
D03*
Y6477500D02*
D03*
Y9477500D02*
D03*
Y9977500D02*
D03*
Y5977500D02*
D03*
Y8977500D02*
D03*
Y7477500D02*
D03*
Y7977500D02*
D03*
Y6977500D02*
D03*
D25*
X11080500Y7727500D02*
D03*
X10318500D02*
D03*
X10826500D02*
D03*
X11334500D02*
D03*
X10572500D02*
D03*
D26*
X5715000Y10477500D02*
D03*
D27*
X9601200Y10629900D02*
D03*
Y10883900D02*
D03*
Y11137900D02*
D03*
D28*
X6595000Y6255900D02*
D03*
X11055000Y8902500D02*
D03*
X7892500Y8707500D02*
D03*
X8682500Y8747500D02*
D03*
X10772500Y8752500D02*
D03*
X7195000Y8355000D02*
D03*
X6790000Y8362500D02*
D03*
X11022500Y8467500D02*
D03*
X12319000Y10820400D02*
D03*
X12293600Y11315700D02*
D03*
X7235000Y9650000D02*
D03*
X7245000Y10070000D02*
D03*
X12420600Y8255000D02*
D03*
X7167500Y8872500D02*
D03*
X12400000Y8545000D02*
D03*
X6830000Y8855000D02*
D03*
X6597500Y8680000D02*
D03*
X7036600Y7350000D02*
D03*
X6772500Y7360000D02*
D03*
X7075000Y7875000D02*
D03*
X11774892Y8799108D02*
D03*
X6805000Y7892500D02*
D03*
X10630000Y8045000D02*
D03*
X11182100Y8051800D02*
D03*
X10135000Y8042500D02*
D03*
X7087500Y6852500D02*
D03*
X6812500Y6850000D02*
D03*
X12027500Y8050000D02*
D03*
X12097500Y8777500D02*
D03*
%TF.MD5,0dfa630b634f70d9ca654de7e54e2ad9*%
M02*
