%TF.GenerationSoftware,Altium Limited,Altium Designer,25.8.1 (18)*%
G04 Layer_Color=65535*
%FSLAX45Y45*%
%MOMM*%
%TF.SameCoordinates,DFAA6066-2C62-496B-BB9A-86AEB07E6F94*%
%TF.FilePolarity,Positive*%
%TF.FileFunction,Legend,Top*%
%TF.Part,Single*%
G01*
G75*
%TA.AperFunction,NonConductor*%
%ADD19C,0.20000*%
%ADD20C,0.10000*%
%ADD21C,0.25400*%
D19*
X5720000Y10812500D02*
G03*
X5720000Y10812500I-5000J0D01*
G01*
D20*
X6355000Y5727500D02*
Y10727500D01*
X5015000Y5727500D02*
X6355000D01*
X5015000D02*
Y10727500D01*
X6355000D01*
D21*
X9930933Y7801175D02*
Y7674217D01*
X9956325Y7648825D01*
X10007108D01*
X10032500Y7674217D01*
Y7801175D01*
X10083284Y7648825D02*
X10134067D01*
X10108675D01*
Y7801175D01*
X10083284Y7775784D01*
X9474241Y11480775D02*
Y11353817D01*
X9499633Y11328425D01*
X9550417D01*
X9575808Y11353817D01*
Y11480775D01*
X9728159Y11328425D02*
X9626592D01*
X9728159Y11429992D01*
Y11455383D01*
X9702767Y11480775D01*
X9651984D01*
X9626592Y11455383D01*
X5039327Y11132771D02*
X4988543D01*
X5013935D01*
Y11005812D01*
X4988543Y10980420D01*
X4963152D01*
X4937760Y11005812D01*
X5191678Y10980420D02*
X5090111D01*
X5191678Y11081987D01*
Y11107379D01*
X5166286Y11132771D01*
X5115503D01*
X5090111Y11107379D01*
%TF.MD5,b152cac7e763088485441f86f8df5d60*%
M02*
