%TF.GenerationSoftware,Altium Limited,Altium Designer Develop,26.2.0 (10)*%
G04 Layer_Color=8388736*
%FSLAX45Y45*%
%MOMM*%
%TF.SameCoordinates,9916FECA-68EB-43AA-9852-AEDFC5851447*%
%TF.FilePolarity,Negative*%
%TF.FileFunction,Soldermask,Top*%
%TF.Part,Single*%
G01*
G75*
%TA.AperFunction,SMDPad,CuDef*%
%ADD10R,0.85872X0.91213*%
%ADD11R,0.95000X1.35000*%
G04:AMPARAMS|DCode=12|XSize=1.1mm|YSize=0.6mm|CornerRadius=0.051mm|HoleSize=0mm|Usage=FLASHONLY|Rotation=270.000|XOffset=0mm|YOffset=0mm|HoleType=Round|Shape=RoundedRectangle|*
%AMROUNDEDRECTD12*
21,1,1.10000,0.49800,0,0,270.0*
21,1,0.99800,0.60000,0,0,270.0*
1,1,0.10200,-0.24900,-0.49900*
1,1,0.10200,-0.24900,0.49900*
1,1,0.10200,0.24900,0.49900*
1,1,0.10200,0.24900,-0.49900*
%
%ADD12ROUNDEDRECTD12*%
%ADD13R,0.81213X0.65872*%
%ADD14R,1.35000X0.95000*%
%ADD16R,1.45464X1.55620*%
%TA.AperFunction,ConnectorPad*%
%ADD17R,0.88900X1.49860*%
%ADD18R,1.49860X0.88900*%
%TA.AperFunction,BGAPad,CuDef*%
%ADD19R,0.88900X0.88900*%
%TA.AperFunction,SMDPad,CuDef*%
%ADD20R,1.30000X1.55000*%
%ADD21R,0.80000X1.05000*%
%ADD22R,0.65872X0.81213*%
%ADD23R,8.00100X2.20980*%
%ADD24R,1.40000X0.95000*%
%ADD26R,1.20651X1.50822*%
%TA.AperFunction,ComponentPad*%
%ADD36C,1.55000*%
%ADD37R,1.55000X1.55000*%
%TA.AperFunction,SMDPad,CuDef*%
%ADD49R,0.90320X1.05320*%
%ADD50R,1.25320X1.65320*%
%TA.AperFunction,ComponentPad*%
%ADD51C,2.15320*%
%ADD52R,2.15320X2.15320*%
%ADD53R,2.15320X2.15320*%
%TA.AperFunction,ViaPad*%
%ADD54C,1.47320*%
D10*
X1565041Y4826000D02*
D03*
X1409700D02*
D03*
D11*
X2818201Y4851400D02*
D03*
X2668199D02*
D03*
X2705100Y6769100D02*
D03*
X2855102D02*
D03*
D12*
X1580901Y5833999D02*
D03*
X1485900D02*
D03*
X1390899D02*
D03*
Y6104001D02*
D03*
X1485900D02*
D03*
X1580901D02*
D03*
D13*
X6692900Y2844800D02*
D03*
Y2709459D02*
D03*
X7607300Y2209800D02*
D03*
Y2074459D02*
D03*
X7226300Y2510241D02*
D03*
Y2374900D02*
D03*
X7747000Y4182471D02*
D03*
Y4047129D02*
D03*
D14*
X8051800Y1915302D02*
D03*
Y1765300D02*
D03*
D16*
X1981200Y6769100D02*
D03*
X2166356D02*
D03*
X1562100D02*
D03*
X1376944D02*
D03*
D17*
X9987534Y4977130D02*
D03*
X9860534D02*
D03*
X9733534D02*
D03*
X9606534D02*
D03*
X9479534D02*
D03*
X9352534D02*
D03*
X9225534D02*
D03*
X9098534D02*
D03*
X8971534D02*
D03*
X8844534D02*
D03*
X8717534D02*
D03*
X8590534D02*
D03*
X8463534D02*
D03*
X8336534D02*
D03*
Y3227070D02*
D03*
X8463534D02*
D03*
X8590534D02*
D03*
X8717534D02*
D03*
X8844534D02*
D03*
X8971534D02*
D03*
X9098534D02*
D03*
X9225534D02*
D03*
X9352534D02*
D03*
X9479534D02*
D03*
X9606534D02*
D03*
X9733534D02*
D03*
X9860534D02*
D03*
X9987534D02*
D03*
D18*
X8211439Y4673600D02*
D03*
Y4546600D02*
D03*
Y4419600D02*
D03*
Y4292600D02*
D03*
Y4165600D02*
D03*
Y4038600D02*
D03*
Y3911600D02*
D03*
Y3784600D02*
D03*
Y3657600D02*
D03*
Y3530600D02*
D03*
D19*
X9355328Y4392168D02*
D03*
X9215374D02*
D03*
X9075420D02*
D03*
Y4252214D02*
D03*
Y4112260D02*
D03*
X9215374D02*
D03*
X9355328D02*
D03*
Y4252214D02*
D03*
X9215374D02*
D03*
D20*
X9178498Y2581900D02*
D03*
Y1786900D02*
D03*
X8728502Y2581900D02*
D03*
Y1786900D02*
D03*
X10042098Y2581900D02*
D03*
Y1786900D02*
D03*
X9592102Y2581900D02*
D03*
Y1786900D02*
D03*
D21*
X2676098Y5359400D02*
D03*
X2861102D02*
D03*
X2688798Y5842000D02*
D03*
X2873802D02*
D03*
D22*
X1955800Y5346700D02*
D03*
X2091141D02*
D03*
D23*
X4127500Y6788150D02*
D03*
Y6216650D02*
D03*
D24*
X2273300Y2180798D02*
D03*
Y2365797D02*
D03*
D26*
X6747185Y5346700D02*
D03*
X6734485Y4864100D02*
D03*
X6537015Y5346700D02*
D03*
X6524315Y4864100D02*
D03*
D36*
X10604500Y2489200D02*
D03*
Y2235200D02*
D03*
D37*
Y1981200D02*
D03*
D49*
X1473901Y5359400D02*
D03*
X1358900D02*
D03*
D50*
X1785198Y2070100D02*
D03*
X1600200D02*
D03*
X1797898Y2425700D02*
D03*
X1612900D02*
D03*
D51*
X5734299Y6540500D02*
D03*
X6734302D02*
D03*
X7734300D02*
D03*
X8234299D02*
D03*
X8734298D02*
D03*
X9234302D02*
D03*
X9734301D02*
D03*
X6234298D02*
D03*
X7234301D02*
D03*
X8369300Y736600D02*
D03*
X9869297D02*
D03*
X1739900Y482600D02*
D03*
X368300Y5969000D02*
D03*
X406400Y2252599D02*
D03*
X381000Y4081399D02*
D03*
X3894201Y508000D02*
D03*
X6369299Y736600D02*
D03*
X6869298D02*
D03*
X7369297D02*
D03*
X7869301D02*
D03*
X8869299D02*
D03*
X9369298D02*
D03*
X10369301D02*
D03*
D52*
X10234300Y6540500D02*
D03*
X2239899Y482600D02*
D03*
X4394200Y508000D02*
D03*
X5869300Y736600D02*
D03*
D53*
X381000Y3581400D02*
D03*
X368300Y5469001D02*
D03*
X406400Y1752600D02*
D03*
D54*
X2578100Y5537200D02*
D03*
X1917700Y5511800D02*
D03*
X1752600Y5410200D02*
D03*
X9870440Y5128260D02*
D03*
X8840932Y4614388D02*
D03*
X8590534Y4513580D02*
D03*
X8605520Y5255260D02*
D03*
X6471920Y4716780D02*
D03*
X9352534Y2804414D02*
D03*
X8420100Y6341400D02*
D03*
X8138160Y6746240D02*
D03*
X8590534Y3594100D02*
D03*
X8374380Y6949440D02*
D03*
X8670514Y3938046D02*
D03*
X8755380Y4269740D02*
D03*
X9745980Y3434080D02*
D03*
X8196580Y3030220D02*
D03*
X9154160Y4511040D02*
D03*
X9144000Y4721860D02*
D03*
X1910080Y2057400D02*
D03*
X9194800Y3906520D02*
D03*
X9878060Y3081020D02*
D03*
%TF.MD5,7392bed292e86ebb64f830848866b800*%
M02*
