%TF.GenerationSoftware,Altium Limited,Altium Designer Develop,26.2.0 (10)*%
G04 Layer_Physical_Order=1*
G04 Layer_Color=255*
%FSLAX45Y45*%
%MOMM*%
%TF.SameCoordinates,9916FECA-68EB-43AA-9852-AEDFC5851447*%
%TF.FilePolarity,Positive*%
%TF.FileFunction,Copper,L1,Top,Signal*%
%TF.Part,Single*%
G01*
G75*
%TA.AperFunction,SMDPad,CuDef*%
%ADD10R,0.85872X0.91213*%
%ADD11R,0.95000X1.35000*%
G04:AMPARAMS|DCode=12|XSize=1.1mm|YSize=0.6mm|CornerRadius=0.051mm|HoleSize=0mm|Usage=FLASHONLY|Rotation=270.000|XOffset=0mm|YOffset=0mm|HoleType=Round|Shape=RoundedRectangle|*
%AMROUNDEDRECTD12*
21,1,1.10000,0.49800,0,0,270.0*
21,1,0.99800,0.60000,0,0,270.0*
1,1,0.10200,-0.24900,-0.49900*
1,1,0.10200,-0.24900,0.49900*
1,1,0.10200,0.24900,0.49900*
1,1,0.10200,0.24900,-0.49900*
%
%ADD12ROUNDEDRECTD12*%
%ADD13R,0.81213X0.65872*%
%ADD14R,1.35000X0.95000*%
%ADD15R,0.70000X0.85000*%
%ADD16R,1.45464X1.55620*%
%TA.AperFunction,ConnectorPad*%
%ADD17R,0.88900X1.49860*%
%ADD18R,1.49860X0.88900*%
%TA.AperFunction,BGAPad,CuDef*%
%ADD19R,0.88900X0.88900*%
%TA.AperFunction,SMDPad,CuDef*%
%ADD20R,1.30000X1.55000*%
%ADD21R,0.80000X1.05000*%
%ADD22R,0.65872X0.81213*%
%ADD23R,8.00100X2.20980*%
%ADD24R,1.40000X0.95000*%
%ADD25R,1.05000X1.45000*%
%ADD26R,1.20651X1.50822*%
%TA.AperFunction,Conductor*%
%ADD27C,0.50800*%
%ADD28C,0.40000*%
%ADD29C,0.42936*%
%ADD30C,0.47500*%
%ADD31C,0.32936*%
%ADD32C,0.76200*%
%ADD33C,0.44450*%
%ADD34C,0.35000*%
%ADD35C,0.30000*%
%TA.AperFunction,ComponentPad*%
%ADD36C,1.55000*%
%ADD37R,1.55000X1.55000*%
%ADD38C,1.95000*%
%ADD39R,1.95000X1.95000*%
%ADD40R,1.95000X1.95000*%
%TA.AperFunction,ViaPad*%
%ADD41C,1.27000*%
D10*
X1565041Y4826000D02*
D03*
X1409700D02*
D03*
D11*
X2818201Y4851400D02*
D03*
X2668199D02*
D03*
X2705100Y6769100D02*
D03*
X2855102D02*
D03*
D12*
X1580901Y5833999D02*
D03*
X1485900D02*
D03*
X1390899D02*
D03*
Y6104001D02*
D03*
X1485900D02*
D03*
X1580901D02*
D03*
D13*
X6692900Y2844800D02*
D03*
Y2709459D02*
D03*
X7607300Y2209800D02*
D03*
Y2074459D02*
D03*
X7226300Y2510241D02*
D03*
Y2374900D02*
D03*
X7747000Y4182471D02*
D03*
Y4047129D02*
D03*
D14*
X8051800Y1915302D02*
D03*
Y1765300D02*
D03*
D15*
X1473901Y5359400D02*
D03*
X1358900D02*
D03*
D16*
X1981200Y6769100D02*
D03*
X2166356D02*
D03*
X1562100D02*
D03*
X1376944D02*
D03*
D17*
X9987534Y4977130D02*
D03*
X9860534D02*
D03*
X9733534D02*
D03*
X9606534D02*
D03*
X9479534D02*
D03*
X9352534D02*
D03*
X9225534D02*
D03*
X9098534D02*
D03*
X8971534D02*
D03*
X8844534D02*
D03*
X8717534D02*
D03*
X8590534D02*
D03*
X8463534D02*
D03*
X8336534D02*
D03*
Y3227070D02*
D03*
X8463534D02*
D03*
X8590534D02*
D03*
X8717534D02*
D03*
X8844534D02*
D03*
X8971534D02*
D03*
X9098534D02*
D03*
X9225534D02*
D03*
X9352534D02*
D03*
X9479534D02*
D03*
X9606534D02*
D03*
X9733534D02*
D03*
X9860534D02*
D03*
X9987534D02*
D03*
D18*
X8211439Y4673600D02*
D03*
Y4546600D02*
D03*
Y4419600D02*
D03*
Y4292600D02*
D03*
Y4165600D02*
D03*
Y4038600D02*
D03*
Y3911600D02*
D03*
Y3784600D02*
D03*
Y3657600D02*
D03*
Y3530600D02*
D03*
D19*
X9355328Y4392168D02*
D03*
X9215374D02*
D03*
X9075420D02*
D03*
Y4252214D02*
D03*
Y4112260D02*
D03*
X9215374D02*
D03*
X9355328D02*
D03*
Y4252214D02*
D03*
X9215374D02*
D03*
D20*
X9178498Y2581900D02*
D03*
Y1786900D02*
D03*
X8728502Y2581900D02*
D03*
Y1786900D02*
D03*
X10042098Y2581900D02*
D03*
Y1786900D02*
D03*
X9592102Y2581900D02*
D03*
Y1786900D02*
D03*
D21*
X2676098Y5359400D02*
D03*
X2861102D02*
D03*
X2688798Y5842000D02*
D03*
X2873802D02*
D03*
D22*
X1955800Y5346700D02*
D03*
X2091141D02*
D03*
D23*
X4127500Y6788150D02*
D03*
Y6216650D02*
D03*
D24*
X2273300Y2180798D02*
D03*
Y2365797D02*
D03*
D25*
X1785198Y2070100D02*
D03*
X1600200D02*
D03*
X1797898Y2425700D02*
D03*
X1612900D02*
D03*
D26*
X6747185Y5346700D02*
D03*
X6734485Y4864100D02*
D03*
X6537015Y5346700D02*
D03*
X6524315Y4864100D02*
D03*
D27*
X3563620Y3042280D02*
Y5186680D01*
X2908300Y5842000D02*
X3563620Y5186680D01*
X2861102Y5175458D02*
X2933700Y5102860D01*
X2857500Y4682297D02*
X2933700Y4758497D01*
Y5102860D01*
X1282700Y4737100D02*
Y5016500D01*
Y4737100D02*
X1337503Y4682297D01*
X2857500D01*
X1282700Y5016500D02*
X1358900Y5092700D01*
X1565041Y4826000D02*
Y5321300D01*
X1580901Y5337160D01*
Y5833999D01*
X2578100Y5537200D02*
Y5549291D01*
X2688798Y5659989D01*
Y5842000D01*
X1917700Y5920740D02*
X2091141Y5747299D01*
X6734485Y3064835D02*
Y4288206D01*
Y3026735D02*
Y3064835D01*
X2237740Y482600D02*
Y1783080D01*
X6524315Y751840D02*
Y4769175D01*
X1785198Y2057400D02*
X1910080D01*
X2166356Y6855196D02*
Y7010400D01*
Y6769100D02*
Y6855196D01*
X8257540Y3172460D02*
X8628380Y2801620D01*
X8140842Y1915302D02*
X8323580D01*
X3563620Y3042280D02*
X5869300Y736600D01*
X8893800Y1668780D02*
X9011920Y1786900D01*
X9178498D01*
X8369300Y736600D02*
Y1645920D01*
X9592102Y1013795D02*
Y1786900D01*
Y1013795D02*
X9869297Y736600D01*
X10604500Y2489200D02*
X10721340Y2372360D01*
Y1588643D02*
Y2372360D01*
X9869297Y736600D02*
X10721340Y1588643D01*
X6734485Y3064835D02*
X6771640Y3027680D01*
Y1551940D02*
Y3027680D01*
Y1551940D02*
X7896860Y426720D01*
X8059420D01*
X8369300Y736600D01*
X9779000Y4815840D02*
X9906254D01*
X1562100Y6457701D02*
Y6769100D01*
Y6457701D02*
X1580901Y6104001D01*
X8717534Y4737786D02*
X8840932Y4614388D01*
X8857234Y5255260D02*
X8971534Y5140960D01*
X8605520Y5255260D02*
X8857234D01*
X6471920Y4716780D02*
X6524315Y4769175D01*
Y4864100D01*
X1785198Y2070100D02*
X1895897Y2180798D01*
X8420100Y6341400D02*
X8463534Y6297966D01*
X8097520Y5775960D02*
X8336534Y5536946D01*
X8097520Y5775960D02*
Y6705600D01*
X8138160Y6746240D01*
X8133080Y6949440D02*
X8374380D01*
X8031480Y6847840D02*
X8133080Y6949440D01*
X8031480Y5529580D02*
Y6847840D01*
Y5529580D02*
X8270240Y5290820D01*
Y5106416D02*
Y5290820D01*
X8253984Y5090160D02*
X8270240Y5106416D01*
X8253984Y4854956D02*
Y5090160D01*
Y4854956D02*
X8442960Y4665980D01*
Y3957320D02*
Y4665980D01*
Y3957320D02*
X8717534Y3682746D01*
X8670514Y3938046D02*
X8844534Y3764026D01*
X8867663Y3918549D02*
X8971534Y3814679D01*
X8867663Y3918549D02*
Y4157457D01*
X8755380Y4269740D02*
X8867663Y4157457D01*
X8844534Y4826000D02*
X8992870Y4677664D01*
Y4050030D02*
Y4677664D01*
Y4050030D02*
X9034780Y4008120D01*
X9250680D01*
X9745980Y3512820D01*
Y3434080D02*
Y3512820D01*
X588899Y2070100D02*
X1600200D01*
X406400Y2252599D02*
X588899Y2070100D01*
X8628380Y2801620D02*
X8872220D01*
X8953500Y2720340D01*
Y2540000D02*
Y2720340D01*
Y2540000D02*
X9034780Y2458720D01*
X9175760D01*
X9847580Y1786900D01*
X10042098D01*
X2778760Y5066101D02*
Y6205220D01*
X3361690Y6788150D01*
X4127500D01*
X8196580Y1971040D02*
Y3030220D01*
X9154160Y4511040D02*
X9347454D01*
X9479534Y2913126D02*
X10411460Y1981200D01*
X10604500D01*
X9144000Y4721860D02*
X9184640D01*
X1785198Y2057400D02*
Y2070100D01*
X2263140Y4978400D02*
X2369820Y4871720D01*
X2263140Y4978400D02*
Y5783580D01*
X2049780Y5996940D02*
X2263140Y5783580D01*
X7962900Y5384800D02*
X8193659Y5154041D01*
X7962900Y5384800D02*
Y6639179D01*
X7754239Y6847840D02*
X7962900Y6639179D01*
X7541641Y6847840D02*
X7754239D01*
X7234301Y6540500D02*
X7541641Y6847840D01*
X9098534Y3810254D02*
X9194800Y3906520D01*
X9791349Y2964531D02*
X9875169D01*
X10604500Y2235200D01*
X7232137Y599440D02*
X7369297Y736600D01*
X6676715Y599440D02*
X7232137D01*
X6524315Y751840D02*
X6676715Y599440D01*
X9098280Y7119620D02*
X9098534Y7119366D01*
X7132320Y7119620D02*
X9098280D01*
X7023100Y7010400D02*
X7132320Y7119620D01*
X7023100Y6330625D02*
Y7010400D01*
X6537015Y5844540D02*
X7023100Y6330625D01*
X6537015Y5346700D02*
Y5844540D01*
X2974132Y6216650D02*
X4127500D01*
X2873802Y6116320D02*
X2974132Y6216650D01*
X1376944Y6769100D02*
Y7010400D01*
X1460764Y7094220D01*
X2082536D01*
X2166356Y7010400D01*
Y6855196D02*
X2186940Y6875780D01*
X6734485Y4288206D02*
X6840220Y4182471D01*
X6734485Y4288206D02*
Y4864100D01*
X2062480Y6604000D02*
X2623820D01*
X1981200Y6685280D02*
X2062480Y6604000D01*
X1981200Y6685280D02*
Y6769100D01*
X7747000Y3558540D02*
X7774940Y3530600D01*
X7226300Y2176059D02*
X7327900Y2074459D01*
X1612900Y2247900D02*
Y2425700D01*
Y2247900D02*
X1691640Y2169160D01*
Y1971040D02*
Y2169160D01*
X1473200Y1752600D02*
X1691640Y1971040D01*
X406400Y1752600D02*
X1473200D01*
X7234301Y6352921D02*
Y6540500D01*
X6747185Y5865805D02*
X7234301Y6352921D01*
X6747185Y5346700D02*
Y5865805D01*
X7734300Y4627880D02*
X7815580Y4546600D01*
X7734300Y4627880D02*
Y6540500D01*
X7607300Y998601D02*
X7869301Y736600D01*
X368300Y5969000D02*
X1324859D01*
X1390899Y6035040D02*
Y6104001D01*
X1653540Y2540000D02*
X2171700D01*
X1612900Y2499360D02*
X1653540Y2540000D01*
X1612900Y2425700D02*
Y2499360D01*
X6537015Y5080945D02*
Y5346700D01*
Y5080945D02*
X6624320Y4993640D01*
Y4658360D02*
Y4993640D01*
X6614160Y4648200D02*
X6624320Y4658360D01*
X6614160Y991738D02*
Y4648200D01*
Y991738D02*
X6869298Y736600D01*
X6734485Y3026735D02*
X6764020Y2997200D01*
X2237740Y482600D02*
X2239899D01*
X2237740Y1783080D02*
X2382520Y1927860D01*
X2873802Y5605780D02*
Y5842000D01*
X2861102Y5593080D02*
X2873802Y5605780D01*
X2861102Y5359400D02*
Y5593080D01*
X9178498Y1786900D02*
X9592102D01*
X6747185Y5110480D02*
Y5346700D01*
X6734485Y5097780D02*
X6747185Y5110480D01*
X6734485Y4864100D02*
Y5097780D01*
X9075420Y4392168D02*
X9215374D01*
X9075420Y4252214D02*
Y4392168D01*
Y4112260D02*
Y4252214D01*
X9215374D02*
Y4392168D01*
Y4112260D02*
Y4252214D01*
X9355328D01*
Y4392168D01*
Y4112260D02*
Y4252214D01*
X1562100Y6769100D02*
X1981200D01*
X1797898Y2252980D02*
Y2425700D01*
X1785198Y2240280D02*
X1797898Y2252980D01*
X1785198Y2070100D02*
Y2240280D01*
X1376944Y6442695D02*
Y6769100D01*
Y6442695D02*
X1390899Y6428740D01*
Y6104001D02*
Y6428740D01*
X8451982Y1786900D02*
X8728502D01*
X8323580Y1915302D02*
X8451982Y1786900D01*
X1390899Y5637982D02*
Y5833999D01*
Y5637982D02*
X1473901Y5554980D01*
Y5359400D02*
Y5554980D01*
D28*
X2873802Y5842000D02*
X2908300D01*
X2873802D02*
Y6116320D01*
X2578100Y5537200D02*
X2594747Y5520553D01*
Y5453251D02*
Y5520553D01*
Y5453251D02*
X2676098Y5371900D01*
Y5359400D02*
Y5371900D01*
X2861102Y5175458D02*
Y5359400D01*
D29*
X1487932Y4766246D02*
X1507960Y4746219D01*
X1409700Y4823329D02*
Y4826000D01*
X1431168Y4801861D02*
X1462781D01*
X1487932Y4776710D01*
Y4766246D02*
Y4776710D01*
X1507960Y4746219D02*
X2816972D01*
X1409700Y4823329D02*
X1431168Y4801861D01*
D30*
X2818201Y4747448D02*
Y4851400D01*
X2816972Y4746219D02*
X2818201Y4747448D01*
X2705100Y6685280D02*
Y6769100D01*
Y6323122D02*
Y6685280D01*
X2250440Y2365797D02*
Y2461260D01*
X2668199Y4871720D02*
Y4955540D01*
Y4851400D02*
Y4871720D01*
X2369820D02*
X2668199D01*
X8249920Y1765300D02*
X8369300Y1645920D01*
X8893800Y1668780D01*
X8051800Y1765300D02*
X8249920D01*
X2688798Y5842000D02*
X2705100Y6323122D01*
X1895897Y2180798D02*
X2273300D01*
X2668199Y4955540D02*
X2778760Y5066101D01*
X8051800Y1915302D02*
X8140842D01*
X8196580Y1971040D01*
X2186940Y6875780D02*
X2827162D01*
X2855102Y6847840D01*
Y6769100D02*
Y6847840D01*
X2623820Y6604000D02*
X2705100Y6685280D01*
X7757302Y2209800D02*
X8051800Y1915302D01*
X2250440Y2365797D02*
X2273300D01*
X2171700Y2540000D02*
X2250440Y2461260D01*
X2382520Y1927860D02*
Y2256577D01*
X2273300Y2365797D02*
X2382520Y2256577D01*
D31*
X1836202Y5493802D02*
X1899702D01*
X1917700Y5511800D01*
X1778054Y5435654D02*
X1836202Y5493802D01*
X1778054Y5410200D02*
Y5435654D01*
X1752600Y5410200D02*
X1778054D01*
X1841554Y5346700D02*
X1955800D01*
X1778054Y5410200D02*
X1841554Y5346700D01*
X8257540Y3172460D02*
X8336534D01*
X7317740D02*
X8257540D01*
X7226300Y2510241D02*
Y3081020D01*
X7317740Y3172460D01*
X2091141Y5346700D02*
Y5747299D01*
X6840220Y4182471D02*
X7747000D01*
Y3558540D02*
Y4047129D01*
X7226300Y2176059D02*
Y2374900D01*
X7327900Y2074459D02*
X7607300D01*
Y2209800D02*
X7757302D01*
X7607300Y998601D02*
Y2074459D01*
X6692900Y2709459D02*
Y2755900D01*
X6718300Y2781300D01*
X6764020D01*
Y2997200D01*
D32*
X254000Y1905000D02*
Y3454400D01*
Y1905000D02*
X406400Y1752600D01*
X254000Y3454400D02*
X528320Y3728720D01*
X165100Y3865499D02*
X381000Y4081399D01*
X165100Y701040D02*
X195580Y670560D01*
X165100Y701040D02*
Y3865499D01*
X528320Y3728720D02*
Y5308981D01*
X368300Y5469001D02*
X528320Y5308981D01*
X220980Y5821680D02*
X368300Y5969000D01*
X220980Y4241419D02*
Y5821680D01*
Y4241419D02*
X381000Y4081399D01*
X195580Y670560D02*
X383540Y482600D01*
X1739900D01*
D33*
X8193659Y4673600D02*
Y5154041D01*
X9860534Y5118354D02*
X9870440Y5128260D01*
X9860534Y4977130D02*
Y5118354D01*
X9987534Y4897120D02*
Y4977130D01*
X9906254Y4815840D02*
X9987534Y4897120D01*
X9355328Y4392168D02*
X9779000Y4815840D01*
X9355328Y4112260D02*
X9987534Y3480054D01*
Y3227070D02*
Y3480054D01*
X8717534Y4737786D02*
Y4977130D01*
X8590534Y4513580D02*
Y4977130D01*
X8971534D02*
Y5140960D01*
X9352534Y2804414D02*
Y3227070D01*
X8463534Y4977130D02*
Y6297966D01*
X8336534Y4977130D02*
Y5536946D01*
X8590534Y3227070D02*
Y3594100D01*
X8717534Y3227070D02*
Y3682746D01*
X8844534Y3227070D02*
Y3764026D01*
X8971534Y3227070D02*
Y3814679D01*
X8844534Y4826000D02*
Y4977130D01*
X8336534Y3172460D02*
Y3227070D01*
X9347454Y4511040D02*
X9733534Y4897120D01*
Y4977130D01*
X9479534Y2913126D02*
Y3227070D01*
X9352534Y4889754D02*
Y4977130D01*
X9184640Y4721860D02*
X9352534Y4889754D01*
X8193659Y4673600D02*
X8211439D01*
X9098534Y3227070D02*
Y3810254D01*
X9606534Y3149346D02*
Y3227070D01*
Y3149346D02*
X9791349Y2964531D01*
X9860534Y3098546D02*
Y3227070D01*
Y3098546D02*
X9878060Y3081020D01*
X9098534Y4977130D02*
Y7119366D01*
X9987534Y3106166D02*
X10604500Y2489200D01*
X9987534Y3106166D02*
Y3227070D01*
X7774940Y3530600D02*
X8211439D01*
X7815580Y4546600D02*
X8211439D01*
D34*
X1358900Y5092700D02*
Y5359400D01*
D35*
X1516380Y5996940D02*
X2049780D01*
X1485900Y6027420D02*
X1516380Y5996940D01*
X1485900Y6027420D02*
Y6104001D01*
X1390899Y5833999D02*
Y5896859D01*
X1414780Y5920740D01*
X1917700D01*
X1324859Y5969000D02*
X1390899Y6035040D01*
D36*
X10604500Y2489200D02*
D03*
Y2235200D02*
D03*
D37*
Y1981200D02*
D03*
D38*
X5734299Y6540500D02*
D03*
X6734302D02*
D03*
X7734300D02*
D03*
X8234299D02*
D03*
X8734298D02*
D03*
X9234302D02*
D03*
X9734301D02*
D03*
X6234298D02*
D03*
X7234301D02*
D03*
X8369300Y736600D02*
D03*
X9869297D02*
D03*
X1739900Y482600D02*
D03*
X368300Y5969000D02*
D03*
X406400Y2252599D02*
D03*
X381000Y4081399D02*
D03*
X3894201Y508000D02*
D03*
X6369299Y736600D02*
D03*
X6869298D02*
D03*
X7369297D02*
D03*
X7869301D02*
D03*
X8869299D02*
D03*
X9369298D02*
D03*
X10369301D02*
D03*
D39*
X10234300Y6540500D02*
D03*
X2239899Y482600D02*
D03*
X4394200Y508000D02*
D03*
X5869300Y736600D02*
D03*
D40*
X381000Y3581400D02*
D03*
X368300Y5469001D02*
D03*
X406400Y1752600D02*
D03*
D41*
X2578100Y5537200D02*
D03*
X1917700Y5511800D02*
D03*
X1752600Y5410200D02*
D03*
X9870440Y5128260D02*
D03*
X8840932Y4614388D02*
D03*
X8590534Y4513580D02*
D03*
X8605520Y5255260D02*
D03*
X6471920Y4716780D02*
D03*
X9352534Y2804414D02*
D03*
X8420100Y6341400D02*
D03*
X8138160Y6746240D02*
D03*
X8590534Y3594100D02*
D03*
X8374380Y6949440D02*
D03*
X8670514Y3938046D02*
D03*
X8755380Y4269740D02*
D03*
X9745980Y3434080D02*
D03*
X8196580Y3030220D02*
D03*
X9154160Y4511040D02*
D03*
X9144000Y4721860D02*
D03*
X1910080Y2057400D02*
D03*
X9194800Y3906520D02*
D03*
X9878060Y3081020D02*
D03*
%TF.MD5,4e02fff0d3bbb771ddfe69d1f454ff6e*%
M02*
