%TF.GenerationSoftware,Altium Limited,Altium Designer Develop,26.2.0 (10)*%
G04 Layer_Color=0*
%FSLAX45Y45*%
%MOMM*%
%TF.SameCoordinates,9916FECA-68EB-43AA-9852-AEDFC5851447*%
%TF.FilePolarity,Positive*%
%TF.FileFunction,Plated,1,2,PTH,Drill*%
%TF.Part,Single*%
G01*
G75*
%TA.AperFunction,ComponentDrill*%
%ADD56C,1.00000*%
%ADD57C,1.30000*%
%ADD58C,1.30000*%
%TA.AperFunction,ViaDrill,NotFilled*%
%ADD59C,0.71120*%
D56*
X10604500Y2489200D02*
D03*
Y2235200D02*
D03*
Y1981200D02*
D03*
D57*
X5734299Y6540500D02*
D03*
X6734302D02*
D03*
X7734300D02*
D03*
X8234299D02*
D03*
X8734298D02*
D03*
X9234302D02*
D03*
X9734301D02*
D03*
X10234300D02*
D03*
X6234298D02*
D03*
X7234301D02*
D03*
X2239899Y482600D02*
D03*
X8369300Y736600D02*
D03*
X9869297D02*
D03*
X1739900Y482600D02*
D03*
X4394200Y508000D02*
D03*
X3894201D02*
D03*
X5869300Y736600D02*
D03*
X6369299D02*
D03*
X6869298D02*
D03*
X7369297D02*
D03*
X7869301D02*
D03*
X8869299D02*
D03*
X9369298D02*
D03*
X10369301D02*
D03*
D58*
X381000Y3581400D02*
D03*
X368300Y5469001D02*
D03*
X406400Y1752600D02*
D03*
X368300Y5969000D02*
D03*
X406400Y2252599D02*
D03*
X381000Y4081399D02*
D03*
D59*
X2578100Y5537200D02*
D03*
X1917700Y5511800D02*
D03*
X1752600Y5410200D02*
D03*
X9870440Y5128260D02*
D03*
X8840932Y4614388D02*
D03*
X8590534Y4513580D02*
D03*
X8605520Y5255260D02*
D03*
X6471920Y4716780D02*
D03*
X9352534Y2804414D02*
D03*
X8420100Y6341400D02*
D03*
X8138160Y6746240D02*
D03*
X8590534Y3594100D02*
D03*
X8374380Y6949440D02*
D03*
X8670514Y3938046D02*
D03*
X8755380Y4269740D02*
D03*
X9745980Y3434080D02*
D03*
X8196580Y3030220D02*
D03*
X9154160Y4511040D02*
D03*
X9144000Y4721860D02*
D03*
X1910080Y2057400D02*
D03*
X9194800Y3906520D02*
D03*
X9878060Y3081020D02*
D03*
%TF.MD5,a95cb680f1e84fccd43dd8b6dbee8481*%
M02*
