%TF.GenerationSoftware,Altium Limited,Altium Designer Develop,26.0.0 (27)*%
G04 Layer_Color=16711935*
%FSLAX45Y45*%
%MOMM*%
%TF.SameCoordinates,02DC9F92-2DE1-4BA8-9B6C-F5B897B65D40*%
%TF.FilePolarity,Negative*%
%TF.FileFunction,Soldermask,Bot*%
%TF.Part,Single*%
G01*
G75*
%TA.AperFunction,ComponentPad*%
%ADD36C,2.20000*%
%ADD37R,2.20000X2.20000*%
%ADD54C,2.15320*%
%ADD55R,2.15320X2.15320*%
%ADD56C,2.20320*%
%ADD57R,2.15320X2.15320*%
%ADD58R,2.20320X2.20320*%
%ADD59C,3.20320*%
%TA.AperFunction,ViaPad*%
%ADD60C,1.47320*%
D36*
X4432300Y3778997D02*
D03*
D37*
Y5872998D02*
D03*
D54*
X5734299Y6540500D02*
D03*
X6734302D02*
D03*
X7734300D02*
D03*
X8234299D02*
D03*
X8734298D02*
D03*
X9234302D02*
D03*
X9734301D02*
D03*
X6234298D02*
D03*
X7234301D02*
D03*
X8369300Y736600D02*
D03*
X9869297D02*
D03*
X1739900Y482600D02*
D03*
X368300Y5969000D02*
D03*
X406400Y2252599D02*
D03*
X381000Y4081399D02*
D03*
X3894201Y508000D02*
D03*
X6369299Y736600D02*
D03*
X6869298D02*
D03*
X7369297D02*
D03*
X7869301D02*
D03*
X8869299D02*
D03*
X9369298D02*
D03*
X10369301D02*
D03*
D55*
X10234300Y6540500D02*
D03*
X2239899Y482600D02*
D03*
X4394200Y508000D02*
D03*
X5869300Y736600D02*
D03*
D56*
X8625398Y2565400D02*
D03*
X9387398Y5105400D02*
D03*
X7355398D02*
D03*
X8879398D02*
D03*
X9133398Y2565400D02*
D03*
X7609398Y5105400D02*
D03*
X8625398D02*
D03*
X8879398Y2565400D02*
D03*
X9133398Y5105400D02*
D03*
X9641398Y2565400D02*
D03*
X6847398D02*
D03*
X8371398Y5105400D02*
D03*
X8117398D02*
D03*
X7863398D02*
D03*
X7101398D02*
D03*
X6847398D02*
D03*
X6593398D02*
D03*
X6339398D02*
D03*
X6085398D02*
D03*
X9387398Y2565400D02*
D03*
X8371398D02*
D03*
X8117398D02*
D03*
X7863398D02*
D03*
X7609398D02*
D03*
X7355398D02*
D03*
X7101398D02*
D03*
X6593398D02*
D03*
X6339398D02*
D03*
X6085398D02*
D03*
D57*
X381000Y3581400D02*
D03*
X368300Y5469001D02*
D03*
X406400Y1752600D02*
D03*
D58*
X9641398Y5105400D02*
D03*
D59*
X5742402Y5063399D02*
D03*
Y2612400D02*
D03*
X10437398D02*
D03*
Y5063399D02*
D03*
D60*
X4196730Y1871980D02*
D03*
X2245360Y1981200D02*
D03*
X10109200Y4049202D02*
D03*
X9809480Y5900420D02*
D03*
X10210800Y2562860D02*
D03*
X2808300Y4988560D02*
D03*
X2280920D02*
D03*
X3505200Y2852420D02*
D03*
%TF.MD5,b8942f0b070a8468abecd96f6d389f7d*%
M02*
