%TF.GenerationSoftware,Altium Limited,Altium Designer Develop,26.0.0 (27)*%
G04 Layer_Color=0*
%FSLAX45Y45*%
%MOMM*%
%TF.SameCoordinates,02DC9F92-2DE1-4BA8-9B6C-F5B897B65D40*%
%TF.FilePolarity,Positive*%
%TF.FileFunction,Plated,1,2,PTH,Drill*%
%TF.Part,Single*%
G01*
G75*
%TA.AperFunction,ComponentDrill*%
%ADD63C,1.30000*%
%ADD64C,1.02000*%
%ADD65C,1.30000*%
%ADD66C,1.45000*%
%TA.AperFunction,ViaDrill,NotFilled*%
%ADD67C,0.71120*%
D63*
X5734299Y6540500D02*
D03*
X6734302D02*
D03*
X7734300D02*
D03*
X8234299D02*
D03*
X8734298D02*
D03*
X9234302D02*
D03*
X9734301D02*
D03*
X10234300D02*
D03*
X6234298D02*
D03*
X7234301D02*
D03*
X2239899Y482600D02*
D03*
X8369300Y736600D02*
D03*
X9869297D02*
D03*
X1739900Y482600D02*
D03*
X4394200Y508000D02*
D03*
X3894201D02*
D03*
X5869300Y736600D02*
D03*
X6369299D02*
D03*
X6869298D02*
D03*
X7369297D02*
D03*
X7869301D02*
D03*
X8869299D02*
D03*
X9369298D02*
D03*
X10369301D02*
D03*
D64*
X8625398Y2565400D02*
D03*
X9387398Y5105400D02*
D03*
X7355398D02*
D03*
X8879398D02*
D03*
X9133398Y2565400D02*
D03*
X7609398Y5105400D02*
D03*
X8625398D02*
D03*
X8879398Y2565400D02*
D03*
X9133398Y5105400D02*
D03*
X9641398Y2565400D02*
D03*
X6847398D02*
D03*
X9641398Y5105400D02*
D03*
X8371398D02*
D03*
X8117398D02*
D03*
X7863398D02*
D03*
X7101398D02*
D03*
X6847398D02*
D03*
X6593398D02*
D03*
X6339398D02*
D03*
X6085398D02*
D03*
X9387398Y2565400D02*
D03*
X8371398D02*
D03*
X8117398D02*
D03*
X7863398D02*
D03*
X7609398D02*
D03*
X7355398D02*
D03*
X7101398D02*
D03*
X6593398D02*
D03*
X6339398D02*
D03*
X6085398D02*
D03*
D65*
X381000Y3581400D02*
D03*
X368300Y5469001D02*
D03*
X406400Y1752600D02*
D03*
X368300Y5969000D02*
D03*
X406400Y2252599D02*
D03*
X381000Y4081399D02*
D03*
D66*
X4432300Y3778997D02*
D03*
Y5872998D02*
D03*
D67*
X4196730Y1871980D02*
D03*
X2245360Y1981200D02*
D03*
X10109200Y4049202D02*
D03*
X9809480Y5900420D02*
D03*
X10210800Y2562860D02*
D03*
X2808300Y4988560D02*
D03*
X2280920D02*
D03*
X3505200Y2852420D02*
D03*
%TF.MD5,b074411983582cde5337ecd67ed932f4*%
M02*
