%TF.GenerationSoftware,Altium Limited,Altium Designer Develop,26.0.0 (27)*%
G04 Layer_Color=8421504*
%FSLAX45Y45*%
%MOMM*%
%TF.SameCoordinates,02DC9F92-2DE1-4BA8-9B6C-F5B897B65D40*%
%TF.FilePolarity,Positive*%
%TF.FileFunction,Paste,Top*%
%TF.Part,Single*%
G01*
G75*
%TA.AperFunction,SMDPad,CuDef*%
%ADD10R,1.40000X0.95000*%
%ADD11R,1.05000X1.45000*%
%ADD12R,1.20651X1.50822*%
G04:AMPARAMS|DCode=13|XSize=0.55mm|YSize=1.25mm|CornerRadius=0.0495mm|HoleSize=0mm|Usage=FLASHONLY|Rotation=90.000|XOffset=0mm|YOffset=0mm|HoleType=Round|Shape=RoundedRectangle|*
%AMROUNDEDRECTD13*
21,1,0.55000,1.15100,0,0,90.0*
21,1,0.45100,1.25000,0,0,90.0*
1,1,0.09900,0.57550,0.22550*
1,1,0.09900,0.57550,-0.22550*
1,1,0.09900,-0.57550,-0.22550*
1,1,0.09900,-0.57550,0.22550*
%
%ADD13ROUNDEDRECTD13*%
G04:AMPARAMS|DCode=14|XSize=1.3mm|YSize=0.76mm|CornerRadius=0.095mm|HoleSize=0mm|Usage=FLASHONLY|Rotation=90.000|XOffset=0mm|YOffset=0mm|HoleType=Round|Shape=RoundedRectangle|*
%AMROUNDEDRECTD14*
21,1,1.30000,0.57000,0,0,90.0*
21,1,1.11000,0.76000,0,0,90.0*
1,1,0.19000,0.28500,0.55500*
1,1,0.19000,0.28500,-0.55500*
1,1,0.19000,-0.28500,-0.55500*
1,1,0.19000,-0.28500,0.55500*
%
%ADD14ROUNDEDRECTD14*%
%ADD15R,1.26213X0.95776*%
%ADD16R,0.95000X1.40000*%
%ADD17R,0.95000X1.35000*%
%ADD18R,1.35000X0.85000*%
%ADD19R,1.55620X1.45464*%
%ADD20R,1.45000X1.05000*%
%ADD21R,1.55620X1.55443*%
%ADD22R,0.85000X1.35000*%
D10*
X2273300Y2180798D02*
D03*
Y2365797D02*
D03*
D11*
X1785198Y2070100D02*
D03*
X1600200D02*
D03*
X1797898Y2425700D02*
D03*
X1612900D02*
D03*
D12*
X3715370Y2057400D02*
D03*
X4406900Y2032000D02*
D03*
X3505200Y2057400D02*
D03*
X4196730Y2032000D02*
D03*
D13*
X2637399Y5461000D02*
D03*
Y5207000D02*
D03*
Y5334000D02*
D03*
Y5588000D02*
D03*
X2112401Y5207000D02*
D03*
Y5334000D02*
D03*
Y5461000D02*
D03*
Y5588000D02*
D03*
D14*
X2463902Y6273800D02*
D03*
X2284898D02*
D03*
D15*
X3022600Y4740580D02*
D03*
Y4886020D02*
D03*
D16*
X3356402Y5333995D02*
D03*
X2282398Y5803900D02*
D03*
X2467402D02*
D03*
X3171398Y5333995D02*
D03*
D17*
X3338901Y5613400D02*
D03*
X3188899D02*
D03*
D18*
X2895600Y4248201D02*
D03*
Y4413199D02*
D03*
D19*
X3276595Y3603122D02*
D03*
Y3788278D02*
D03*
D20*
X2628895Y4435902D02*
D03*
Y4250898D02*
D03*
D21*
X3581400Y3756574D02*
D03*
Y3581400D02*
D03*
D22*
X2978099Y5334005D02*
D03*
X2813101D02*
D03*
%TF.MD5,964738a69216fd23449a8138379f5bc7*%
M02*
