%TF.GenerationSoftware,Altium Limited,Altium Designer Develop,26.0.0 (27)*%
G04 Layer_Physical_Order=1*
G04 Layer_Color=255*
%FSLAX45Y45*%
%MOMM*%
%TF.SameCoordinates,02DC9F92-2DE1-4BA8-9B6C-F5B897B65D40*%
%TF.FilePolarity,Positive*%
%TF.FileFunction,Copper,L1,Top,Signal*%
%TF.Part,Single*%
G01*
G75*
%TA.AperFunction,SMDPad,CuDef*%
%ADD10R,1.40000X0.95000*%
%ADD11R,1.05000X1.45000*%
%ADD12R,1.20651X1.50822*%
G04:AMPARAMS|DCode=13|XSize=0.55mm|YSize=1.25mm|CornerRadius=0.0495mm|HoleSize=0mm|Usage=FLASHONLY|Rotation=90.000|XOffset=0mm|YOffset=0mm|HoleType=Round|Shape=RoundedRectangle|*
%AMROUNDEDRECTD13*
21,1,0.55000,1.15100,0,0,90.0*
21,1,0.45100,1.25000,0,0,90.0*
1,1,0.09900,0.57550,0.22550*
1,1,0.09900,0.57550,-0.22550*
1,1,0.09900,-0.57550,-0.22550*
1,1,0.09900,-0.57550,0.22550*
%
%ADD13ROUNDEDRECTD13*%
G04:AMPARAMS|DCode=14|XSize=1.3mm|YSize=0.76mm|CornerRadius=0.095mm|HoleSize=0mm|Usage=FLASHONLY|Rotation=90.000|XOffset=0mm|YOffset=0mm|HoleType=Round|Shape=RoundedRectangle|*
%AMROUNDEDRECTD14*
21,1,1.30000,0.57000,0,0,90.0*
21,1,1.11000,0.76000,0,0,90.0*
1,1,0.19000,0.28500,0.55500*
1,1,0.19000,0.28500,-0.55500*
1,1,0.19000,-0.28500,-0.55500*
1,1,0.19000,-0.28500,0.55500*
%
%ADD14ROUNDEDRECTD14*%
%ADD15R,1.26213X0.95776*%
%ADD16R,0.95000X1.40000*%
%ADD17R,0.95000X1.35000*%
%ADD18R,1.35000X0.85000*%
%ADD19R,1.55620X1.45464*%
%ADD20R,1.45000X1.05000*%
%ADD21R,1.55620X1.55443*%
%ADD22R,0.85000X1.35000*%
%TA.AperFunction,Conductor*%
%ADD23C,1.01600*%
%ADD24C,0.50800*%
%ADD25C,0.38000*%
%ADD26C,0.38100*%
%ADD27C,0.25400*%
%ADD28C,0.27500*%
%ADD29C,0.47500*%
%ADD30C,0.47888*%
%ADD31C,0.42500*%
%TA.AperFunction,ComponentPad*%
%ADD32C,1.95000*%
%ADD33R,1.95000X1.95000*%
%ADD34C,2.00000*%
%ADD35R,1.95000X1.95000*%
%ADD36C,2.20000*%
%ADD37R,2.20000X2.20000*%
%ADD38R,2.00000X2.00000*%
%ADD39C,3.00000*%
%TA.AperFunction,ViaPad*%
%ADD40C,1.27000*%
D10*
X2273300Y2180798D02*
D03*
Y2365797D02*
D03*
D11*
X1785198Y2070100D02*
D03*
X1600200D02*
D03*
X1797898Y2425700D02*
D03*
X1612900D02*
D03*
D12*
X3715370Y2057400D02*
D03*
X4406900Y2032000D02*
D03*
X3505200Y2057400D02*
D03*
X4196730Y2032000D02*
D03*
D13*
X2637399Y5461000D02*
D03*
Y5207000D02*
D03*
Y5334000D02*
D03*
Y5588000D02*
D03*
X2112401Y5207000D02*
D03*
Y5334000D02*
D03*
Y5461000D02*
D03*
Y5588000D02*
D03*
D14*
X2463902Y6273800D02*
D03*
X2284898D02*
D03*
D15*
X3022600Y4740580D02*
D03*
Y4886020D02*
D03*
D16*
X3356402Y5333995D02*
D03*
X2282398Y5803900D02*
D03*
X2467402D02*
D03*
X3171398Y5333995D02*
D03*
D17*
X3338901Y5613400D02*
D03*
X3188899D02*
D03*
D18*
X2895600Y4248201D02*
D03*
Y4413199D02*
D03*
D19*
X3276595Y3603122D02*
D03*
Y3788278D02*
D03*
D20*
X2628895Y4435902D02*
D03*
Y4250898D02*
D03*
D21*
X3581400Y3756574D02*
D03*
Y3581400D02*
D03*
D22*
X2978099Y5334005D02*
D03*
X2813101D02*
D03*
D23*
X177800Y4284599D02*
X381000Y4081399D01*
X177800Y4284599D02*
Y5778500D01*
X368300Y5969000D01*
X381000Y3581400D02*
X546100Y3746500D01*
X368300Y5469001D02*
X546100Y5291201D01*
Y3746500D02*
Y5291201D01*
D24*
X3715370Y2146300D02*
X4381500D01*
X2382520Y2256577D02*
Y5544820D01*
Y625221D02*
Y1927860D01*
Y625221D02*
X3715370Y1958071D01*
X2239899Y482600D02*
X2382520Y625221D01*
X3455012Y3744486D02*
X3467100Y3756574D01*
X3393440Y3682914D02*
X3455012Y3744486D01*
X2626360Y3975100D02*
Y4250898D01*
X3111500Y3489960D02*
X3708400Y2893060D01*
X2379980Y5547360D02*
Y5935980D01*
Y5547360D02*
X2382520Y5544820D01*
X259080Y1899920D02*
X406400Y1752600D01*
X259080Y1899920D02*
Y3459480D01*
X381000Y3581400D01*
X4196730Y1871980D02*
Y2032000D01*
X7609398Y976701D02*
Y2565400D01*
X7369297Y736600D02*
X7609398Y976701D01*
X1785198Y2070100D02*
X1895897Y2180798D01*
X6085398Y5105400D02*
X8423793Y2767005D01*
X9674418D01*
X9779503Y2661920D01*
Y2497323D02*
Y2661920D01*
X8869299Y1587119D02*
X9779503Y2497323D01*
X8869299Y736600D02*
Y1587119D01*
X3708400Y2893060D02*
X8103545D01*
X8293100Y2703505D01*
X9503293D01*
X9641398Y2565400D01*
X3455012Y3744486D02*
X3581400Y3756574D01*
X3276595Y3788278D02*
X3455012Y3744486D01*
X9234302Y5206304D02*
Y6540500D01*
X9133398Y5105400D02*
X9234302Y5206304D01*
X8734298Y6540500D02*
X8901176Y6707378D01*
X9330182D01*
X9674860Y6362700D01*
Y5869940D02*
Y6362700D01*
Y5869940D02*
X10109200Y5435600D01*
Y4049202D02*
Y5435600D01*
X9809480Y5900420D02*
X10210800Y5499100D01*
Y2562860D02*
Y5499100D01*
X6733540Y2197542D02*
X7101398Y2565400D01*
X6733540Y601980D02*
Y2197542D01*
Y601980D02*
X7035800Y299720D01*
X9932421D01*
X10369301Y736600D01*
X588899Y2070100D02*
X1600200D01*
X406400Y2252599D02*
X588899Y2070100D01*
X2280920Y4988560D02*
Y5140960D01*
X9869297Y736600D02*
Y2300295D01*
X9906503Y2337501D01*
Y4586295D01*
X9387398Y5105400D02*
X9906503Y4586295D01*
X4432300Y3778997D02*
Y3982720D01*
X4582160Y4132580D01*
Y6002020D01*
X4335780Y6248400D02*
X4582160Y6002020D01*
X2626360Y4250898D02*
X2628895D01*
X2626360Y3975100D02*
X3111500Y3489960D01*
X3368040D01*
X3393440Y3515360D01*
Y3682914D01*
X3467100Y3756574D02*
X3581400D01*
X7101398Y5105400D02*
X9376293Y2830505D01*
X9715058D01*
X9843003Y2702560D01*
Y2425258D02*
Y2702560D01*
X9781540Y2363795D02*
X9843003Y2425258D01*
X9781540Y1148842D02*
Y2363795D01*
X9369298Y736600D02*
X9781540Y1148842D01*
X368300Y5969000D02*
X673100Y6273800D01*
X3581400Y3581400D02*
X3700780D01*
X4432300Y4312920D01*
Y5872998D01*
X3715370Y1958071D02*
Y2057400D01*
X9641398Y5105400D02*
X10005060Y4741738D01*
Y670560D02*
Y4741738D01*
X9923780Y589280D02*
X10005060Y670560D01*
X8016621Y589280D02*
X9923780D01*
X7869301Y736600D02*
X8016621Y589280D01*
X6869298Y736600D02*
Y2079300D01*
X7355398Y2565400D01*
X2239899Y482600D02*
Y1785239D01*
X2382520Y1927860D01*
X6734302Y6540500D02*
X6894322Y6380480D01*
X7350318D01*
X8625398Y5105400D01*
X1135380Y482600D02*
X1739900D01*
X195580Y1422400D02*
X1135380Y482600D01*
X195580Y1422400D02*
Y3895979D01*
X381000Y4081399D01*
X3505200Y2057400D02*
Y2852420D01*
X2514600Y4368800D02*
X2540000Y4343400D01*
X2721661D01*
X4432300Y3778997D02*
X5191760Y4538457D01*
Y5497962D01*
X6234298Y6540500D01*
X2241758Y5588000D02*
X2282398Y5628640D01*
X3182620Y3603122D02*
X3276595D01*
X3101340Y3684402D02*
X3182620Y3603122D01*
X3101340Y3684402D02*
Y4112260D01*
X3218180Y4740580D02*
X3356402Y4878802D01*
X1612900Y2247900D02*
Y2425700D01*
Y2247900D02*
X1691640Y2169160D01*
Y1971040D02*
Y2169160D01*
X1473200Y1752600D02*
X1691640Y1971040D01*
X406400Y1752600D02*
X1473200D01*
X2011680Y5801360D02*
X2284898Y6074578D01*
X1653540Y2540000D02*
X2171700D01*
X1612900Y2499360D02*
X1653540Y2540000D01*
X1612900Y2425700D02*
Y2499360D01*
X4406900Y2032000D02*
Y2120900D01*
X4381500Y2146300D02*
X4406900Y2120900D01*
X3715370Y2057400D02*
Y2146300D01*
X1797898Y2252980D02*
Y2425700D01*
X1785198Y2240280D02*
X1797898Y2252980D01*
X1785198Y2070100D02*
Y2240280D01*
X2628895Y4815840D02*
X2637399Y4824344D01*
X2628895Y4435902D02*
Y4815840D01*
D25*
X2463902Y6248400D02*
X4335780D01*
X2463902D02*
Y6273800D01*
Y6019902D02*
Y6248400D01*
X2379980Y5935980D02*
X2463902Y6019902D01*
X673100Y6273800D02*
X2284898D01*
Y6074578D02*
Y6273800D01*
D26*
X2382520Y5544820D02*
X2466340Y5461000D01*
X2927401Y5593080D02*
X3188899D01*
X2467402Y5628640D02*
X2508042Y5588000D01*
X2813101Y5478780D02*
X2927401Y5593080D01*
X2813101Y5334005D02*
Y5478780D01*
X3356402Y4878802D02*
Y5333995D01*
X3338901Y5481041D02*
Y5613400D01*
Y5481041D02*
X3356402Y5463540D01*
Y5333995D02*
Y5463540D01*
X3073410Y5333995D02*
X3171398D01*
X3073400Y5334005D02*
X3073410Y5333995D01*
X2978099Y5334005D02*
X3073400D01*
D27*
X2560320Y5461000D02*
X2637399D01*
X2112401Y5207000D02*
X2214880D01*
X2112401Y5588000D02*
X2241758D01*
X2508042D02*
X2637399D01*
X2037080Y5461000D02*
X2112401D01*
X2722885Y5334005D02*
X2813101D01*
X2722880Y5334000D02*
X2722885Y5334005D01*
X2637399Y5334000D02*
X2722880D01*
X2637399Y4824344D02*
Y5207000D01*
X2773523Y4413199D02*
X2895600D01*
X2750820Y4435902D02*
X2773523Y4413199D01*
X2628895Y4435902D02*
X2750820D01*
D28*
X2466340Y5461000D02*
X2560320D01*
X2214880Y5207000D02*
X2280920Y5140960D01*
X2514600Y5415280D02*
X2560320Y5461000D01*
X2514600Y4368800D02*
Y5415280D01*
X2011680Y5486400D02*
Y5801360D01*
Y5486400D02*
X2037080Y5461000D01*
D29*
X2250440Y2365797D02*
Y2461260D01*
X2245360Y1981200D02*
Y2180798D01*
X1895897D02*
X2245360D01*
X2536500Y5872998D02*
X4432300D01*
X2467402Y5803900D02*
X2536500Y5872998D01*
X2245360Y2180798D02*
X2273300D01*
X2382520Y1927860D02*
Y2256577D01*
X2273300Y2365797D02*
X2382520Y2256577D01*
X2282398Y5628640D02*
Y5803900D01*
X2467402Y5628640D02*
Y5803900D01*
X3188899Y5593080D02*
Y5613400D01*
X2250440Y2365797D02*
X2273300D01*
X2171700Y2540000D02*
X2250440Y2461260D01*
D30*
X2910840Y4886020D02*
X3022600D01*
X2808300Y4988560D02*
X2910840Y4886020D01*
X3022600Y4740580D02*
X3218180D01*
D31*
X2721661Y4343400D02*
X2816860Y4248201D01*
X2895600D01*
X2965399D02*
X3101340Y4112260D01*
X2895600Y4248201D02*
X2965399D01*
X3022600Y4375201D02*
Y4740580D01*
X2895600Y4248201D02*
X3022600Y4375201D01*
D32*
X5734299Y6540500D02*
D03*
X6734302D02*
D03*
X7734300D02*
D03*
X8234299D02*
D03*
X8734298D02*
D03*
X9234302D02*
D03*
X9734301D02*
D03*
X6234298D02*
D03*
X7234301D02*
D03*
X8369300Y736600D02*
D03*
X9869297D02*
D03*
X1739900Y482600D02*
D03*
X368300Y5969000D02*
D03*
X406400Y2252599D02*
D03*
X381000Y4081399D02*
D03*
X3894201Y508000D02*
D03*
X6369299Y736600D02*
D03*
X6869298D02*
D03*
X7369297D02*
D03*
X7869301D02*
D03*
X8869299D02*
D03*
X9369298D02*
D03*
X10369301D02*
D03*
D33*
X10234300Y6540500D02*
D03*
X2239899Y482600D02*
D03*
X4394200Y508000D02*
D03*
X5869300Y736600D02*
D03*
D34*
X8625398Y2565400D02*
D03*
X9387398Y5105400D02*
D03*
X7355398D02*
D03*
X8879398D02*
D03*
X9133398Y2565400D02*
D03*
X7609398Y5105400D02*
D03*
X8625398D02*
D03*
X8879398Y2565400D02*
D03*
X9133398Y5105400D02*
D03*
X9641398Y2565400D02*
D03*
X6847398D02*
D03*
X8371398Y5105400D02*
D03*
X8117398D02*
D03*
X7863398D02*
D03*
X7101398D02*
D03*
X6847398D02*
D03*
X6593398D02*
D03*
X6339398D02*
D03*
X6085398D02*
D03*
X9387398Y2565400D02*
D03*
X8371398D02*
D03*
X8117398D02*
D03*
X7863398D02*
D03*
X7609398D02*
D03*
X7355398D02*
D03*
X7101398D02*
D03*
X6593398D02*
D03*
X6339398D02*
D03*
X6085398D02*
D03*
D35*
X381000Y3581400D02*
D03*
X368300Y5469001D02*
D03*
X406400Y1752600D02*
D03*
D36*
X4432300Y3778997D02*
D03*
D37*
Y5872998D02*
D03*
D38*
X9641398Y5105400D02*
D03*
D39*
X5742402Y5063399D02*
D03*
Y2612400D02*
D03*
X10437398D02*
D03*
Y5063399D02*
D03*
D40*
X4196730Y1871980D02*
D03*
X2245360Y1981200D02*
D03*
X10109200Y4049202D02*
D03*
X9809480Y5900420D02*
D03*
X10210800Y2562860D02*
D03*
X2808300Y4988560D02*
D03*
X2280920D02*
D03*
X3505200Y2852420D02*
D03*
%TF.MD5,ead803e09dbb7aa8cb2247957cb8f53a*%
M02*
