%TF.GenerationSoftware,Altium Limited,Altium Designer Develop,26.2.0 (10)*%
G04 Layer_Color=8388736*
%FSLAX45Y45*%
%MOMM*%
%TF.SameCoordinates,46203149-4941-4059-B700-9D65DD099762*%
%TF.FilePolarity,Negative*%
%TF.FileFunction,Soldermask,Top*%
%TF.Part,Single*%
G01*
G75*
%TA.AperFunction,SMDPad,CuDef*%
%ADD10R,1.30000X1.00000*%
%ADD11R,0.81213X0.75814*%
%ADD13R,1.40000X0.95000*%
%ADD14R,1.55443X1.55620*%
%ADD15R,1.55620X1.45464*%
%ADD19R,1.26213X0.95776*%
%ADD20R,1.35000X0.95000*%
%TA.AperFunction,ComponentPad*%
%ADD24C,1.80340*%
%ADD26C,1.85000*%
%ADD27R,1.85000X1.85000*%
%ADD28C,2.20000*%
%ADD29R,2.20000X2.20000*%
%TA.AperFunction,SMDPad,CuDef*%
G04:AMPARAMS|DCode=40|XSize=0.7532mm|YSize=1.4532mm|CornerRadius=0.1511mm|HoleSize=0mm|Usage=FLASHONLY|Rotation=90.000|XOffset=0mm|YOffset=0mm|HoleType=Round|Shape=RoundedRectangle|*
%AMROUNDEDRECTD40*
21,1,0.75320,1.15100,0,0,90.0*
21,1,0.45100,1.45320,0,0,90.0*
1,1,0.30220,0.57550,0.22550*
1,1,0.30220,0.57550,-0.22550*
1,1,0.30220,-0.57550,-0.22550*
1,1,0.30220,-0.57550,0.22550*
%
%ADD40ROUNDEDRECTD40*%
%ADD41R,1.65320X1.25320*%
%ADD42R,1.55320X1.05320*%
G04:AMPARAMS|DCode=43|XSize=1.5032mm|YSize=0.9632mm|CornerRadius=0.1966mm|HoleSize=0mm|Usage=FLASHONLY|Rotation=180.000|XOffset=0mm|YOffset=0mm|HoleType=Round|Shape=RoundedRectangle|*
%AMROUNDEDRECTD43*
21,1,1.50320,0.57000,0,0,180.0*
21,1,1.11000,0.96320,0,0,180.0*
1,1,0.39320,-0.55500,0.28500*
1,1,0.39320,0.55500,0.28500*
1,1,0.39320,0.55500,-0.28500*
1,1,0.39320,-0.55500,-0.28500*
%
%ADD43ROUNDEDRECTD43*%
%TA.AperFunction,ComponentPad*%
%ADD44R,2.15320X2.15320*%
%ADD45C,2.15320*%
%ADD46R,2.15320X2.15320*%
%TA.AperFunction,ViaPad*%
%ADD47C,1.47320*%
D10*
X2540000Y4532300D02*
D03*
Y4332300D02*
D03*
X2933700Y5764200D02*
D03*
Y5564200D02*
D03*
D11*
X2844800Y4189400D02*
D03*
Y4064000D02*
D03*
X2603500Y6082497D02*
D03*
Y5957103D02*
D03*
D13*
X1193800Y3407202D02*
D03*
Y3222198D02*
D03*
X1879600Y1689100D02*
D03*
Y1504102D02*
D03*
D14*
X1827489Y2984500D02*
D03*
X1652311D02*
D03*
D15*
X2209800Y3169656D02*
D03*
Y2984500D02*
D03*
D19*
X342900Y2422220D02*
D03*
Y2276780D02*
D03*
D20*
X2235200Y1433901D02*
D03*
Y1283899D02*
D03*
D24*
X993902Y520700D02*
D03*
X1493901D02*
D03*
X1993900D02*
D03*
X2493899D02*
D03*
D26*
X1981200Y4152900D02*
D03*
Y4406900D02*
D03*
X1943100Y5676900D02*
D03*
Y5930900D02*
D03*
D27*
X1981200Y4660900D02*
D03*
X1943100Y6184900D02*
D03*
D28*
X3086100Y3459998D02*
D03*
D29*
Y1366002D02*
D03*
D40*
X1422400Y2311400D02*
D03*
Y2438400D02*
D03*
Y2565400D02*
D03*
Y2692400D02*
D03*
X897402Y2311400D02*
D03*
Y2438400D02*
D03*
Y2565400D02*
D03*
Y2692400D02*
D03*
D41*
X381000Y1520398D02*
D03*
Y1705402D02*
D03*
D42*
X1892300Y2267001D02*
D03*
Y2431999D02*
D03*
X1092200Y1555801D02*
D03*
Y1720799D02*
D03*
D43*
X330200Y3200502D02*
D03*
Y3021498D02*
D03*
D44*
X1701800Y7683500D02*
D03*
D45*
X2201799D02*
D03*
X622300Y4635500D02*
D03*
X584200Y6159500D02*
D03*
D46*
X622300Y4135501D02*
D03*
X584200Y5659501D02*
D03*
D47*
X1785620Y2565400D02*
D03*
X2161540Y2290562D02*
D03*
X2910840Y1137920D02*
D03*
X3134360Y4064000D02*
D03*
X3388360Y970280D02*
D03*
%TF.MD5,b3d78f84124d3ca550b3ad79a92d27ea*%
M02*
