%TF.GenerationSoftware,Altium Limited,Altium Designer Develop,26.2.0 (10)*%
G04 Layer_Color=16711935*
%FSLAX45Y45*%
%MOMM*%
%TF.SameCoordinates,46203149-4941-4059-B700-9D65DD099762*%
%TF.FilePolarity,Negative*%
%TF.FileFunction,Soldermask,Bot*%
%TF.Part,Single*%
G01*
G75*
%TA.AperFunction,ComponentPad*%
%ADD24C,1.80340*%
%ADD26C,1.85000*%
%ADD27R,1.85000X1.85000*%
%ADD28C,2.20000*%
%ADD29R,2.20000X2.20000*%
%ADD44R,2.15320X2.15320*%
%ADD45C,2.15320*%
%ADD46R,2.15320X2.15320*%
%TA.AperFunction,ViaPad*%
%ADD47C,1.47320*%
D24*
X993902Y520700D02*
D03*
X1493901D02*
D03*
X1993900D02*
D03*
X2493899D02*
D03*
D26*
X1981200Y4152900D02*
D03*
Y4406900D02*
D03*
X1943100Y5676900D02*
D03*
Y5930900D02*
D03*
D27*
X1981200Y4660900D02*
D03*
X1943100Y6184900D02*
D03*
D28*
X3086100Y3459998D02*
D03*
D29*
Y1366002D02*
D03*
D44*
X1701800Y7683500D02*
D03*
D45*
X2201799D02*
D03*
X622300Y4635500D02*
D03*
X584200Y6159500D02*
D03*
D46*
X622300Y4135501D02*
D03*
X584200Y5659501D02*
D03*
D47*
X1785620Y2565400D02*
D03*
X2161540Y2290562D02*
D03*
X2910840Y1137920D02*
D03*
X3134360Y4064000D02*
D03*
X3388360Y970280D02*
D03*
%TF.MD5,d4e1ea04d69d4b936a1d2bc9bd50eeb7*%
M02*
