%TF.GenerationSoftware,Altium Limited,Altium Designer Develop,26.2.0 (10)*%
G04 Layer_Color=8421504*
%FSLAX45Y45*%
%MOMM*%
%TF.SameCoordinates,46203149-4941-4059-B700-9D65DD099762*%
%TF.FilePolarity,Positive*%
%TF.FileFunction,Paste,Top*%
%TF.Part,Single*%
G01*
G75*
%TA.AperFunction,SMDPad,CuDef*%
%ADD10R,1.30000X1.00000*%
%ADD11R,0.81213X0.75814*%
G04:AMPARAMS|DCode=12|XSize=0.55mm|YSize=1.25mm|CornerRadius=0.0495mm|HoleSize=0mm|Usage=FLASHONLY|Rotation=90.000|XOffset=0mm|YOffset=0mm|HoleType=Round|Shape=RoundedRectangle|*
%AMROUNDEDRECTD12*
21,1,0.55000,1.15100,0,0,90.0*
21,1,0.45100,1.25000,0,0,90.0*
1,1,0.09900,0.57550,0.22550*
1,1,0.09900,0.57550,-0.22550*
1,1,0.09900,-0.57550,-0.22550*
1,1,0.09900,-0.57550,0.22550*
%
%ADD12ROUNDEDRECTD12*%
%ADD13R,1.40000X0.95000*%
%ADD14R,1.55443X1.55620*%
%ADD15R,1.55620X1.45464*%
%ADD16R,1.45000X1.05000*%
%ADD17R,1.35000X0.85000*%
G04:AMPARAMS|DCode=18|XSize=1.3mm|YSize=0.76mm|CornerRadius=0.095mm|HoleSize=0mm|Usage=FLASHONLY|Rotation=180.000|XOffset=0mm|YOffset=0mm|HoleType=Round|Shape=RoundedRectangle|*
%AMROUNDEDRECTD18*
21,1,1.30000,0.57000,0,0,180.0*
21,1,1.11000,0.76000,0,0,180.0*
1,1,0.19000,-0.55500,0.28500*
1,1,0.19000,0.55500,0.28500*
1,1,0.19000,0.55500,-0.28500*
1,1,0.19000,-0.55500,-0.28500*
%
%ADD18ROUNDEDRECTD18*%
%ADD19R,1.26213X0.95776*%
%ADD20R,1.35000X0.95000*%
D10*
X2540000Y4532300D02*
D03*
Y4332300D02*
D03*
X2933700Y5764200D02*
D03*
Y5564200D02*
D03*
D11*
X2844800Y4189400D02*
D03*
Y4064000D02*
D03*
X2603500Y6082497D02*
D03*
Y5957103D02*
D03*
D12*
X1422400Y2311400D02*
D03*
Y2438400D02*
D03*
Y2565400D02*
D03*
Y2692400D02*
D03*
X897402Y2311400D02*
D03*
Y2438400D02*
D03*
Y2565400D02*
D03*
Y2692400D02*
D03*
D13*
X1193800Y3407202D02*
D03*
Y3222198D02*
D03*
X1879600Y1689100D02*
D03*
Y1504102D02*
D03*
D14*
X1827489Y2984500D02*
D03*
X1652311D02*
D03*
D15*
X2209800Y3169656D02*
D03*
Y2984500D02*
D03*
D16*
X381000Y1520398D02*
D03*
Y1705402D02*
D03*
D17*
X1892300Y2267001D02*
D03*
Y2431999D02*
D03*
X1092200Y1555801D02*
D03*
Y1720799D02*
D03*
D18*
X330200Y3200502D02*
D03*
Y3021498D02*
D03*
D19*
X342900Y2422220D02*
D03*
Y2276780D02*
D03*
D20*
X2235200Y1433901D02*
D03*
Y1283899D02*
D03*
%TF.MD5,9cee1f66f5c7428af897e9fbff90cab1*%
M02*
